<?xml version="1.0" standalone="no"?>
<!DOCTYPE svg PUBLIC "-//W3C//DTD SVG 20010904//EN"
 "http://www.w3.org/TR/2001/REC-SVG-20010904/DTD/svg10.dtd">
<svg version="1.0" xmlns="http://www.w3.org/2000/svg"
 width="512.000000pt" height="512.000000pt" viewBox="0 0 512.000000 512.000000"
 preserveAspectRatio="xMidYMid meet">
<metadata>
Created by potrace 1.14, written by Peter Selinger 2001-2017
</metadata>
<g transform="translate(0.000000,512.000000) scale(0.100000,-0.100000)"
fill="#000000" stroke="none">
<path d="M0 2946 c0 -1726 3 -2175 13 -2179 9 -4 9 -6 -1 -6 -10 -1 -12 -81
-12 -381 l1 -380 2559 0 2560 0 0 2279 c0 1814 -3 2280 -12 2284 -10 4 -10 6
0 6 9 1 12 63 12 276 l0 275 -2560 0 -2560 0 0 -2174z m5068 2136 c2 -7 -2
-10 -12 -6 -9 3 -16 11 -16 16 0 13 23 5 28 -10z m-388 -22 c0 -5 -4 -10 -10
-10 -5 0 -10 5 -10 10 0 6 5 10 10 10 6 0 10 -4 10 -10z m-1295 -60 c3 -5 1
-10 -4 -10 -6 0 -11 5 -11 10 0 6 2 10 4 10 3 0 8 -4 11 -10z m-555 -410 c160
-24 230 -41 367 -86 142 -48 393 -169 447 -216 11 -10 23 -18 27 -18 10 0 121
-87 209 -163 96 -85 246 -248 285 -312 10 -16 35 -50 54 -74 19 -25 36 -51 37
-58 1 -8 7 -20 14 -28 16 -19 97 -180 127 -250 37 -91 81 -236 111 -370 26
-115 27 -131 26 -395 -1 -280 -4 -312 -49 -490 -19 -78 -73 -233 -109 -313
-15 -32 -24 -63 -21 -68 4 -5 2 -9 -4 -9 -5 0 -29 -37 -52 -81 -24 -45 -52
-94 -64 -108 -12 -14 -38 -51 -58 -81 -20 -30 -54 -75 -74 -100 -77 -91 -260
-268 -338 -325 -44 -32 -82 -61 -85 -65 -3 -4 -12 -10 -20 -14 -8 -3 -40 -22
-70 -40 -74 -45 -249 -133 -283 -141 -15 -4 -27 -11 -27 -15 0 -5 -23 -13 -51
-19 -29 -6 -66 -17 -83 -25 -17 -7 -71 -22 -121 -34 -296 -71 -656 -68 -959 7
-22 5 -44 8 -48 5 -4 -3 -8 -1 -8 4 0 5 -21 15 -47 22 -115 32 -449 186 -466
216 -4 8 -14 14 -21 14 -7 0 -21 9 -31 20 -10 11 -22 20 -28 20 -5 0 -35 22
-66 48 -31 27 -64 53 -75 59 -24 13 -190 176 -188 185 1 3 -14 20 -33 37 -19
17 -35 35 -35 40 0 5 -10 18 -23 28 -13 10 -26 25 -29 33 -3 8 -34 58 -69 110
-92 136 -196 351 -231 479 -16 58 -31 113 -35 121 -3 8 -7 22 -8 30 -1 8 -5
33 -10 55 -4 22 -10 47 -11 55 -29 144 -31 499 -3 661 19 111 18 108 56 244
79 282 257 594 456 797 108 110 249 229 354 298 41 28 77 50 80 50 3 0 25 14
50 30 24 17 48 30 53 30 4 0 30 11 57 24 115 58 227 98 378 135 50 12 108 27
130 33 110 31 433 35 615 8z m1297 -4332 c-3 -8 -6 -5 -6 6 -1 11 2 17 5 13 3
-3 4 -12 1 -19z m403 -158 c0 -5 -4 -10 -10 -10 -5 0 -10 5 -10 10 0 6 5 10
10 10 6 0 10 -4 10 -10z m-1685 -80 c3 -5 1 -10 -4 -10 -6 0 -11 5 -11 10 0 6
2 10 4 10 3 0 8 -4 11 -10z"/>
<path d="M1676 2666 c-9 -127 1 -273 20 -303 12 -19 23 -23 64 -23 43 0 50 3
50 20 0 13 -7 20 -19 20 -43 0 -51 33 -51 217 l0 173 -29 0 -28 0 -7 -104z"/>
<path d="M2445 2715 c-10 -84 4 -325 21 -352 12 -19 23 -23 64 -23 43 0 50 3
50 20 0 11 -7 20 -15 20 -8 0 -24 9 -35 20 -18 18 -20 33 -20 195 l0 175 -29
0 c-27 0 -29 -3 -36 -55z"/>
<path d="M2660 2758 c-16 -9 -30 -29 -40 -61 -10 -32 -20 -47 -32 -47 -12 0
-18 -8 -18 -25 0 -18 5 -25 20 -25 19 0 20 -7 20 -130 l0 -130 35 0 35 0 0
130 c0 123 1 130 20 130 15 0 20 7 20 25 0 18 -5 25 -20 25 -14 0 -20 7 -20
23 0 30 18 47 51 47 24 0 47 25 35 37 -12 12 -84 12 -106 1z"/>
<path d="M804 2741 c-2 -2 -4 -94 -4 -203 l0 -198 35 0 35 0 0 204 0 203 -31
-1 c-17 -1 -32 -3 -35 -5z"/>
<path d="M897 2744 c-4 -4 -7 -18 -7 -31 0 -20 5 -23 34 -23 25 0 40 -7 55
-26 25 -32 26 -55 6 -94 -12 -23 -23 -29 -52 -32 -31 -2 -39 -7 -41 -25 -3
-18 2 -23 17 -23 16 0 30 -18 58 -75 37 -74 38 -75 76 -75 38 0 39 1 25 23 -8
12 -29 47 -47 79 -30 54 -31 57 -13 70 34 24 52 62 52 106 0 38 -6 50 -39 83
-25 25 -48 39 -64 39 -14 0 -32 2 -39 5 -8 3 -17 2 -21 -1z"/>
<path d="M1897 2728 c-82 -48 -113 -188 -63 -294 23 -51 74 -94 110 -94 25 0
19 40 -10 63 -15 11 -33 35 -40 53 -31 74 -3 213 45 229 15 4 21 15 21 36 0
35 -12 36 -63 7z"/>
<path d="M1980 2725 c0 -19 8 -28 37 -40 35 -15 38 -14 56 4 20 19 20 20 -14
40 -48 29 -79 28 -79 -4z"/>
<path d="M2917 2729 c-112 -59 -116 -293 -7 -366 18 -13 41 -23 51 -23 29 0
23 38 -11 66 -33 28 -50 77 -50 144 0 56 31 126 59 135 15 4 21 15 21 36 0 34
-11 36 -63 8z"/>
<path d="M3000 2722 c0 -23 6 -29 38 -39 32 -10 39 -10 56 7 19 18 18 19 -15
39 -50 31 -79 28 -79 -7z"/>
<path d="M4290 2632 c0 -44 62 -62 75 -21 7 21 -7 39 -32 39 -6 0 -18 3 -27 6
-12 5 -16 -1 -16 -24z"/>
<path d="M1160 2624 c-42 -36 -60 -74 -60 -129 0 -88 59 -155 136 -155 49 0
104 23 104 43 0 27 -21 35 -48 21 -41 -21 -71 -17 -104 16 -28 28 -30 35 -25
83 4 42 10 56 36 77 35 30 42 70 12 70 -11 0 -33 -12 -51 -26z"/>
<path d="M1250 2627 c0 -14 12 -32 30 -45 17 -13 30 -31 30 -42 0 -18 -7 -20
-60 -20 -57 0 -60 -1 -60 -25 0 -25 0 -25 95 -25 107 0 107 1 85 82 -19 68
-120 131 -120 75z"/>
<path d="M1452 2635 c-28 -12 -31 -17 -23 -34 10 -17 13 -18 51 -5 30 10 46
11 60 4 18 -9 20 -22 20 -105 0 -84 -2 -95 -20 -105 -11 -6 -20 -20 -20 -30 0
-24 8 -25 38 -4 21 15 25 15 41 0 10 -9 22 -16 28 -16 15 0 23 35 12 51 -5 8
-9 56 -9 107 0 90 -1 95 -29 123 -24 23 -38 29 -73 29 -24 -1 -58 -7 -76 -15z"/>
<path d="M2225 2640 c-11 -4 -33 -22 -49 -39 -39 -40 -48 -128 -20 -186 18
-38 65 -75 97 -75 26 0 21 41 -9 65 -47 38 -43 159 7 186 21 11 26 59 7 58 -7
0 -22 -4 -33 -9z"/>
<path d="M2290 2625 c0 -14 7 -28 15 -32 23 -8 45 -57 45 -98 0 -41 -22 -90
-45 -98 -23 -9 -20 -57 4 -57 25 0 77 44 96 81 35 66 7 177 -53 212 -43 24
-62 22 -62 -8z"/>
<path d="M3220 2643 c-32 -12 -40 -24 -29 -44 8 -15 14 -17 29 -9 30 16 87 12
94 -6 3 -9 6 -51 6 -95 0 -68 -3 -81 -20 -91 -11 -7 -20 -23 -20 -36 0 -22 1
-22 30 -7 28 14 32 14 46 0 8 -8 19 -15 24 -15 13 0 31 36 22 44 -4 4 -9 55
-12 113 -5 100 -7 106 -33 129 -22 18 -39 24 -75 23 -26 0 -54 -3 -62 -6z"/>
<path d="M3430 2496 l0 -156 35 0 36 0 -3 153 -3 152 -32 3 -33 3 0 -155z"/>
<path d="M3533 2643 c-7 -2 -13 -15 -13 -29 0 -21 3 -23 31 -17 21 4 34 1 40
-8 5 -8 9 -67 9 -131 l0 -118 35 0 35 0 0 124 c0 119 -1 126 -26 155 -20 25
-33 31 -62 30 -21 0 -43 -3 -49 -6z"/>
<path d="M3703 2643 c-7 -2 -13 -15 -13 -27 0 -20 5 -23 38 -22 l37 1 3 -127
3 -128 34 0 35 0 0 121 c0 120 -7 151 -39 176 -16 12 -75 16 -98 6z"/>
<path d="M3934 2631 c-39 -24 -64 -76 -64 -136 0 -88 59 -155 136 -155 49 0
104 23 104 43 0 28 -21 36 -56 21 -48 -20 -62 -18 -96 16 -28 28 -30 35 -25
83 4 42 10 56 36 77 34 29 42 70 14 70 -10 0 -32 -9 -49 -19z"/>
<path d="M4020 2627 c0 -14 12 -32 30 -45 17 -13 30 -31 30 -42 0 -18 -7 -20
-60 -20 -57 0 -60 -1 -60 -25 0 -25 0 -25 95 -25 l95 0 0 30 c0 45 -23 92 -59
123 -41 34 -71 36 -71 4z"/>
<path d="M4197 2622 c-36 -38 -36 -84 -1 -117 15 -14 30 -25 35 -25 4 0 14 -3
23 -6 13 -5 16 1 16 25 0 19 -6 34 -15 37 -8 4 -15 16 -15 29 0 13 7 25 15 29
8 3 15 17 15 31 0 35 -38 34 -73 -3z"/>
<path d="M1980 2525 c0 -22 4 -25 35 -25 l35 0 0 -49 c0 -51 -9 -61 -51 -61
-14 0 -19 -7 -19 -26 0 -25 2 -26 39 -21 21 2 50 13 65 22 25 16 26 22 26 101
l0 84 -65 0 c-63 0 -65 -1 -65 -25z"/>
<path d="M3000 2525 c0 -22 4 -25 35 -25 l35 0 0 -49 c0 -51 -9 -61 -51 -61
-14 0 -19 -7 -19 -26 0 -25 2 -26 39 -21 21 2 50 13 65 22 25 16 26 22 26 101
l0 84 -65 0 c-63 0 -65 -1 -65 -25z"/>
<path d="M1470 2523 c-8 -3 -27 -17 -42 -31 -54 -50 -23 -152 47 -152 32 0 34
34 3 60 -32 26 -16 71 30 85 42 12 45 45 5 44 -16 0 -35 -3 -43 -6z"/>
<path d="M3213 2515 c-39 -16 -53 -42 -53 -93 0 -46 32 -82 73 -82 33 0 37 27
7 53 -39 33 -11 97 42 97 11 0 18 8 18 20 0 24 -38 27 -87 5z"/>
<path d="M4290 2492 c0 -15 9 -35 20 -45 21 -17 18 -42 -6 -51 -22 -8 -18 -56
5 -56 28 0 69 37 76 70 8 36 -7 66 -48 90 -42 26 -47 25 -47 -8z"/>
<path d="M2766 2404 c-31 -30 -8 -69 36 -62 30 4 38 46 12 65 -23 17 -29 16
-48 -3z"/>
<path d="M4182 2385 c-11 -23 -9 -26 14 -35 14 -6 36 -10 50 -10 33 0 35 45 2
53 -13 2 -30 7 -39 11 -11 5 -19 -1 -27 -19z"/>
</g>
</svg>
