<?xml version="1.0" standalone="no"?>
<!DOCTYPE svg PUBLIC "-//W3C//DTD SVG 20010904//EN"
 "http://www.w3.org/TR/2001/REC-SVG-20010904/DTD/svg10.dtd">
<svg version="1.0" xmlns="http://www.w3.org/2000/svg"
 width="512.000000pt" height="512.000000pt" viewBox="0 0 512.000000 512.000000"
 preserveAspectRatio="xMidYMid meet">
<metadata>
Created by potrace 1.14, written by Peter Selinger 2001-2017
</metadata>
<g transform="translate(0.000000,512.000000) scale(0.100000,-0.100000)"
fill="#000000" stroke="none">
<path d="M2646 4771 c-5 -9 -5 -242 0 -267 2 -13 11 -21 21 -21 82 4 217 -49
286 -112 24 -23 47 -41 51 -41 9 0 236 202 236 210 0 11 -42 46 -111 92 -117
79 -266 129 -422 141 -31 3 -59 2 -61 -2z"/>
<path d="M2410 4739 c-84 -22 -198 -73 -262 -117 -169 -117 -296 -317 -356
-562 l-18 -75 -100 -2 c-54 -1 -108 -2 -119 -2 -20 -1 -20 -7 -18 -1558 0
-857 1 -1564 2 -1570 1 -10 43 -13 174 -13 l174 0 14 -27 c94 -185 295 -345
498 -399 91 -24 121 -27 122 -12 3 42 1 249 -2 251 -2 1 -33 16 -68 32 -75 35
-160 116 -210 199 -32 54 -95 219 -105 278 -21 122 -28 201 -29 313 0 216 22
348 88 512 17 42 38 52 28 13 -6 -24 -17 -22 167 -24 l145 -1 55 -105 c30 -58
85 -162 122 -232 l67 -128 -68 0 -67 0 -1 -120 0 -120 131 0 131 0 53 -104 52
-103 0 -156 c0 -85 -3 -163 -6 -172 -17 -43 -180 -88 -345 -94 -14 -1 -16 -18
-15 -128 l1 -128 40 1 c247 5 492 98 625 238 l45 47 0 82 1 82 156 3 156 2
-63 110 c-35 60 -75 129 -88 152 -13 24 -54 95 -91 158 -64 109 -68 118 -69
182 l-1 67 -39 3 -40 3 -109 190 c-61 105 -120 208 -133 230 -12 22 -36 63
-53 91 l-30 51 61 29 c194 92 369 283 451 490 94 240 94 558 0 770 -13 30 -43
84 -66 120 -38 62 -41 71 -41 135 l1 69 -42 1 c-22 1 -51 0 -62 0 -12 -1 -37
11 -55 27 -127 110 -336 210 -498 237 -19 3 -37 8 -40 10 -17 10 -295 21 -417
16 -21 -1 -21 -5 -22 -173 0 -95 1 -182 3 -193 4 -19 12 -21 127 -21 148 0
269 -11 282 -24 5 -5 9 -34 8 -63 l-1 -54 87 -1 c48 -1 99 -1 114 -1 37 -1 90
-59 133 -145 l35 -69 0 -157 c0 -152 -1 -157 -24 -179 -30 -29 -127 -59 -213
-67 -38 -3 -77 -8 -88 -9 -11 -2 -25 -4 -31 -4 -8 -1 -11 -65 -11 -221 0 -123
-4 -224 -9 -229 -5 -5 -32 -12 -60 -15 l-51 -5 1 232 c1 128 -2 240 -7 250 -4
9 -15 17 -25 17 -24 0 -110 52 -152 92 -91 85 -169 238 -199 389 -30 151 -34
192 -34 349 1 370 106 624 307 744 33 20 68 36 78 36 9 0 21 8 25 18 6 14 9
183 4 265 -1 21 -17 21 -111 -4z m-168 -2080 c67 -34 161 -66 221 -76 37 -6
36 -7 -51 -29 -114 -28 -220 -79 -299 -143 l-63 -51 0 215 0 214 66 -50 c36
-27 93 -63 126 -80z m708 -67 c0 -5 -6 -16 -12 -25 -12 -15 -19 -16 -66 -5
l-53 13 43 10 c57 14 88 17 88 7z"/>
</g>
</svg>
