<?xml version="1.0" standalone="no"?>
<!DOCTYPE svg PUBLIC "-//W3C//DTD SVG 20010904//EN"
 "http://www.w3.org/TR/2001/REC-SVG-20010904/DTD/svg10.dtd">
<svg version="1.0" xmlns="http://www.w3.org/2000/svg"
 width="512.000000pt" height="512.000000pt" viewBox="0 0 512.000000 512.000000"
 preserveAspectRatio="xMidYMid meet">
<metadata>
Created by potrace 1.14, written by Peter Selinger 2001-2017
</metadata>
<g transform="translate(0.000000,512.000000) scale(0.100000,-0.100000)"
fill="#000000" stroke="none">
<path d="M1 5049 c0 -69 0 -69 32 -78 l32 -9 -32 -1 c-29 -1 -33 -4 -33 -28 0
-14 7 -35 17 -45 9 -10 11 -18 5 -18 -6 0 -13 6 -15 13 -3 6 -6 -70 -6 -170
-1 -153 1 -183 13 -183 8 0 17 -4 20 -9 4 -5 -3 -7 -14 -4 -19 5 -20 0 -20
-133 0 -133 1 -138 18 -119 9 12 26 27 36 35 18 14 19 14 6 -10 -7 -13 -24
-33 -37 -43 -25 -20 -31 -64 -10 -86 9 -11 9 -13 0 -7 -10 6 -13 -21 -13 -119
0 -82 4 -124 10 -120 5 3 10 -1 10 -9 0 -9 -4 -16 -9 -16 -5 0 -9 -38 -10 -83
l-2 -84 33 -11 33 -11 -32 2 -31 3 0 -110 0 -111 20 53 c11 29 22 51 25 49 8
-8 -17 -85 -32 -101 -12 -12 -15 -52 -15 -219 0 -185 2 -205 18 -220 10 -10
26 -17 36 -17 9 0 15 -4 12 -8 -3 -5 -19 -7 -36 -4 -30 4 -30 4 -30 -42 0 -44
1 -46 28 -46 60 0 101 -20 137 -67 19 -25 35 -50 35 -56 0 -5 -9 2 -20 16 -11
13 -32 28 -47 32 -21 5 -24 8 -13 15 18 11 -26 30 -83 37 -34 4 -37 2 -37 -21
0 -20 4 -24 17 -20 17 5 17 5 1 -9 -22 -18 -26 -142 -5 -150 10 -4 10 -6 0 -6
-10 -1 -13 -31 -12 -118 1 -97 3 -110 10 -74 13 66 19 73 16 19 l-2 -48 40 -1
40 -1 -35 -7 c-51 -10 -61 -19 -61 -54 1 -18 -2 -84 -5 -148 -6 -114 -6 -117
17 -134 23 -16 23 -17 2 -10 -21 6 -22 4 -20 -66 l2 -72 45 -14 c47 -15 108
-4 95 17 -4 6 7 10 27 9 l33 -1 -27 -11 c-16 -6 -28 -17 -28 -25 0 -7 -5 -10
-10 -7 -6 4 -16 2 -23 -3 -20 -16 -66 -21 -60 -7 2 7 -9 17 -26 23 l-31 11 0
-135 0 -134 28 16 27 16 -27 -25 c-24 -23 -28 -34 -28 -85 0 -32 5 -63 12 -70
9 -9 9 -12 -1 -12 -11 0 -11 -3 0 -17 10 -11 10 -14 2 -9 -10 6 -13 -20 -13
-117 0 -118 1 -125 23 -140 l22 -16 -22 6 c-23 5 -23 4 -23 -91 l0 -97 32 -15
33 -15 -32 6 -33 7 0 -95 c0 -94 0 -95 26 -101 15 -4 32 -2 37 3 16 16 31 13
18 -3 -9 -11 -9 -15 1 -20 19 -9 -44 0 -64 9 -16 6 -18 1 -18 -35 l0 -43 52 7
53 7 -35 -29 c-36 -31 -53 -34 -29 -6 11 14 10 16 -11 12 l-25 -3 -2 -354 c-3
-435 -16 -402 150 -400 89 1 107 3 103 15 -3 8 -1 14 4 14 6 0 10 -7 10 -15 0
-12 15 -15 79 -15 l78 0 -18 57 c-26 77 -15 80 18 5 l28 -62 90 1 c65 1 83 3
65 10 -19 6 -15 7 15 2 22 -3 127 -7 234 -10 152 -3 196 -1 202 9 7 10 9 10 9
1 0 -18 116 -18 123 0 4 9 6 9 6 0 1 -10 44 -13 183 -13 158 0 184 2 202 17
20 17 20 17 7 0 -12 -15 -10 -17 23 -17 34 0 35 1 26 26 -15 40 -12 42 10 7
19 -33 21 -33 95 -33 68 0 75 2 75 20 0 11 4 20 9 20 5 0 18 15 30 32 26 42
27 24 1 -20 -27 -43 -25 -52 8 -52 20 0 33 7 42 25 7 14 15 23 17 21 3 -2 0
-14 -7 -25 -11 -21 -9 -21 121 -21 126 0 131 1 126 20 -3 11 -1 18 4 14 5 -3
9 -12 9 -20 0 -19 186 -21 193 -1 4 9 6 9 6 0 1 -10 31 -13 116 -13 105 0 114
1 108 18 -4 9 -13 22 -21 28 -23 17 17 11 46 -7 25 -16 30 -31 7 -23 -8 4 -15
2 -15 -4 0 -6 41 -11 106 -11 68 -1 103 3 99 9 -3 5 -13 10 -21 10 -8 0 -14 5
-14 11 0 6 6 9 14 6 7 -3 19 0 25 6 8 8 11 7 11 -4 0 -19 55 -39 108 -39 40 0
42 1 42 30 l0 30 37 -15 c21 -9 45 -22 53 -30 22 -20 260 -22 260 -2 0 8 3 8
9 -2 9 -14 36 -12 75 4 14 6 17 5 12 -3 -5 -9 8 -12 45 -12 45 0 51 2 46 19
-7 28 11 51 40 51 29 0 26 -10 -4 -14 -11 -2 -19 -13 -21 -29 -3 -23 0 -27 23
-27 18 0 24 4 19 13 -6 9 -4 9 7 -1 10 -9 86 -12 309 -12 194 0 290 4 280 10
-9 6 -10 10 -3 10 6 0 15 -5 18 -10 3 -6 15 -10 26 -10 28 0 26 53 -3 73 -23
16 -22 16 7 7 17 -4 41 -13 55 -18 l25 -11 -27 0 c-23 -1 -28 -6 -28 -26 l0
-25 294 0 c235 0 302 3 336 15 53 19 73 19 40 0 -23 -13 -20 -14 53 -15 62 0
77 3 77 15 0 8 5 15 11 15 6 0 9 -6 6 -14 -4 -9 4 -13 24 -14 28 -1 29 0 29
51 0 40 -3 48 -12 39 -14 -14 -28 -16 -28 -3 0 5 9 13 20 16 14 4 20 15 20 36
0 25 -4 29 -27 30 l-28 1 28 10 c31 11 35 24 10 31 -16 4 -16 5 -1 6 15 1 17
31 18 367 0 268 -3 364 -11 359 -8 -6 -8 -2 0 14 7 13 11 67 9 148 -3 108 -5
124 -15 103 -12 -25 -12 -25 -12 -2 -1 12 6 25 14 28 13 5 15 75 15 541 0 424
-3 533 -12 527 -10 -6 -10 -4 0 7 8 9 12 55 12 155 0 105 -3 144 -12 147 -10
4 -10 6 0 6 8 1 12 21 12 66 0 58 -2 67 -22 76 l-23 10 23 -5 22 -4 0 190 c0
184 -1 190 -22 209 l-23 20 22 -11 22 -10 0 129 0 130 -47 26 c-26 14 -52 36
-58 50 l-11 23 43 -21 c24 -11 39 -24 33 -27 -6 -4 0 -14 15 -24 l26 -16 0 39
c0 37 -2 40 -32 44 l-33 4 33 1 32 2 0 75 c0 52 -4 75 -12 75 -9 0 -9 3 0 12
17 17 15 49 -2 42 -8 -3 -17 0 -21 6 -3 6 -3 10 2 9 31 -5 33 2 33 160 0 158
0 160 -22 164 l-23 4 23 2 c21 1 22 5 22 71 0 57 -4 74 -20 90 -11 11 -20 25
-20 32 0 6 6 3 14 -8 8 -10 17 -16 20 -13 4 3 5 78 4 165 -3 144 -4 156 -17
132 -8 -16 -18 -28 -23 -28 -5 0 -2 13 7 29 8 17 12 37 9 45 -5 12 -2 15 11
10 14 -6 16 0 13 37 -3 37 -7 46 -32 58 -17 8 -47 15 -68 17 -35 3 -98 28 -98
39 0 3 23 -4 51 -14 28 -11 57 -17 64 -15 7 3 29 -2 49 -10 l36 -15 0 29 c0
16 -4 32 -10 35 -5 3 -10 11 -10 16 0 6 5 7 10 4 6 -4 10 14 10 48 0 46 -3 56
-22 66 l-23 11 23 -6 c20 -5 22 -2 22 36 0 30 -3 39 -12 34 -10 -6 -10 -4 0 7
6 7 12 20 12 28 0 10 -7 8 -25 -9 -14 -13 -27 -21 -30 -18 -3 2 9 17 25 33 24
23 30 37 30 72 0 35 -3 43 -18 43 -13 0 -23 -14 -34 -47 -12 -35 -16 -41 -17
-24 -1 24 -1 24 -16 5 -13 -17 -13 -14 0 24 l14 42 -76 0 c-81 0 -81 0 -35
-48 6 -7 12 -18 12 -24 0 -6 -16 8 -36 31 l-36 41 -314 0 c-278 0 -314 -2
-314 -16 0 -8 5 -12 10 -9 6 4 25 3 43 -1 30 -8 29 -9 -23 -15 -30 -3 -59 -2
-65 2 -5 6 -4 9 3 9 7 0 12 7 12 16 0 12 -10 14 -47 12 -44 -3 -48 -5 -51 -31
-2 -15 -7 -25 -12 -22 -4 3 -6 15 -2 27 4 18 2 20 -19 14 -13 -4 -40 -9 -59
-12 l-35 -4 35 14 c34 14 30 15 -77 15 -77 1 -113 -3 -113 -10 0 -8 -4 -8 -12
-1 -17 12 -228 15 -228 3 0 -6 7 -36 15 -67 8 -32 13 -59 11 -61 -3 -3 -13 27
-42 125 -5 19 -52 15 -57 -5 -4 -17 -5 -17 -6 0 -1 15 -12 17 -76 17 -42 0
-75 -4 -75 -10 0 -5 -8 -14 -19 -19 -15 -9 -18 -7 -17 7 1 15 -13 17 -138 19
-103 1 -136 -1 -127 -10 22 -22 11 -30 -12 -9 -28 26 -64 29 -70 5 -4 -17 -5
-17 -6 0 -1 15 -10 17 -68 15 -38 -2 -71 -7 -75 -13 -5 -6 -8 -5 -8 3 0 9 -29
12 -109 12 -96 0 -110 -2 -114 -17 -4 -17 -5 -17 -6 0 -1 15 -13 17 -111 17
-105 0 -110 -1 -110 -21 0 -19 5 -21 50 -17 30 2 49 -1 47 -7 -2 -5 -22 -11
-45 -13 -23 -2 -42 -8 -42 -14 0 -7 -6 -4 -13 6 -8 10 -12 29 -9 42 4 21 1 24
-26 24 -17 0 -34 -4 -37 -10 -3 -5 -11 -10 -16 -10 -6 0 -7 5 -4 10 4 6 -14
10 -48 10 -53 0 -54 0 -51 -27 l4 -28 -11 28 c-8 19 -18 27 -36 27 -20 0 -24
-4 -18 -17 15 -38 14 -56 -1 -20 l-17 37 -73 0 c-41 0 -74 -3 -74 -7 0 -4 17
-24 37 -45 20 -21 32 -38 26 -38 -6 0 -28 19 -47 42 -43 49 -70 57 -97 26 -10
-13 -18 -18 -19 -13 0 6 5 16 12 23 9 9 6 12 -16 12 -26 0 -27 -2 -22 -32 l5
-33 -11 33 -11 32 -79 0 c-78 0 -79 0 -67 -22 l12 -21 -28 21 c-39 31 -88 29
-114 -4 -12 -15 -21 -22 -21 -16 0 6 4 14 10 17 22 13 8 25 -30 25 -29 0 -42
-5 -50 -20 -6 -11 -15 -20 -21 -20 -6 0 -3 8 7 18 17 16 12 17 -97 20 -137 3
-154 0 -173 -36 -9 -15 -15 -21 -16 -14 0 7 5 22 10 33 10 18 7 19 -44 19 -34
0 -57 -5 -60 -12 -5 -10 -7 -10 -12 0 -3 6 -12 12 -20 12 -11 0 -13 -10 -9
-42 4 -32 3 -38 -4 -23 -5 11 -10 31 -10 44 l-1 24 -157 -7 c-87 -4 -162 -6
-168 -6 -232 13 -235 13 -235 -6 -1 -18 -1 -18 -11 -1 -8 14 -24 17 -85 17
l-74 0 5 -27 6 -28 -16 28 c-11 19 -24 27 -44 27 -25 0 -31 -7 -50 -51 -13
-28 -25 -49 -28 -46 -2 3 4 26 16 51 l20 46 -94 -1 -94 -2 0 -68z m607 -14 c0
-29 0 -29 -8 -5 -4 14 -8 39 -8 55 0 29 0 29 8 5 4 -14 8 -38 8 -55z m673 19
c13 -16 12 -16 -6 -7 -11 6 -31 24 -45 39 l-25 28 31 -22 c17 -11 37 -29 45
-38z m359 51 c0 -9 -114 -114 -119 -109 -8 8 35 59 75 86 42 29 44 30 44 23z
m260 -38 c-19 -18 -27 -23 -20 -12 27 38 43 55 49 50 3 -3 -10 -20 -29 -38z
m910 27 c60 -24 43 -26 -31 -5 -42 13 -55 20 -37 20 15 1 46 -6 68 -15z m979
-10 l-24 -25 25 -19 c14 -11 30 -20 36 -20 12 0 28 -30 20 -37 -2 -3 -13 4
-25 16 -26 26 -77 52 -85 44 -3 -4 -6 1 -6 10 0 10 6 17 13 17 8 0 22 9 32 20
10 11 23 20 28 20 6 0 0 -12 -14 -26z m924 -4 c16 0 18 -3 9 -9 -9 -5 -11 -17
-6 -36 5 -20 4 -26 -5 -21 -6 4 -11 14 -11 22 0 19 -6 18 -46 -7 -34 -21 -47
-13 -18 12 8 7 23 26 32 43 12 24 17 27 20 14 2 -11 13 -18 25 -18z m-4294 6
c-2 -2 -26 -6 -53 -9 -30 -3 -43 -1 -35 4 13 8 97 13 88 5z m1870 1 c-2 -1
-15 -11 -28 -22 l-24 -20 14 23 c8 12 20 22 28 22 8 0 12 -1 10 -3z m2640 -51
c14 -14 20 -26 15 -26 -6 0 -26 16 -45 36 -20 22 -26 32 -14 26 11 -6 31 -22
44 -36z m-4048 19 c42 -18 30 -18 -41 0 -44 11 -49 13 -24 14 18 1 47 -6 65
-14z m61 -7 c-7 -7 -12 -8 -12 -2 0 14 12 26 19 19 2 -3 -1 -11 -7 -17z m493
-15 c-21 -63 -24 -69 -20 -38 2 17 4 40 4 53 1 12 7 22 15 22 11 0 12 -6 1
-37z m1176 -23 c11 0 17 -4 14 -10 -3 -5 -27 -9 -53 -9 -26 1 -36 4 -24 6 21
4 23 9 18 41 l-5 37 14 -32 c10 -22 22 -33 36 -33z m634 45 c-45 -19 -81 -29
-72 -19 11 11 67 32 87 32 8 0 2 -5 -15 -13z m147 -15 c6 0 8 -13 4 -35 -6
-32 -5 -35 16 -36 20 -1 20 -2 -8 -14 -30 -13 -87 -9 -65 5 6 3 17 30 24 59 6
29 13 46 15 37 2 -9 8 -16 14 -16z m-2294 -105 c1 -26 -1 -27 -8 -10 -5 11 -8
47 -8 80 l1 60 7 -50 c5 -27 8 -63 8 -80z m259 64 c12 -32 7 -38 -12 -13 -9
14 -16 14 -33 5 -30 -16 -27 -31 6 -32 15 0 36 -5 47 -10 14 -7 6 -8 -29 -4
-27 3 -56 5 -64 5 -11 0 -6 10 16 33 23 23 31 39 26 51 -6 16 -4 16 13 6 11
-7 25 -26 30 -41z m2651 5 c13 -20 18 -34 11 -32 -7 2 -23 21 -36 41 -12 20
-17 34 -10 31 6 -2 22 -21 35 -40z m141 6 c0 -10 -3 -8 -9 5 -12 27 -12 43 0
25 5 -8 9 -22 9 -30z m276 33 c-52 -8 -48 -20 12 -37 l58 -16 -48 4 c-86 7
-111 58 -27 54 34 -1 34 -1 5 -5z m-1965 -10 c0 -5 -4 -14 -9 -21 -6 -10 -10
-9 -14 7 -3 14 0 21 9 21 8 0 14 -3 14 -7z m2089 -20 c0 -25 -1 -26 -9 -8 -12
27 -12 35 0 35 6 0 10 -12 9 -27z m-2764 6 c11 -17 -1 -21 -15 -4 -8 9 -8 15
-2 15 6 0 14 -5 17 -11z m198 4 c-18 -2 -48 -2 -65 0 -18 2 -4 4 32 4 36 0 50
-2 33 -4z m437 2 c0 -7 -81 -27 -87 -21 -3 3 10 9 28 15 39 11 59 13 59 6z
m-1462 -35 c13 -16 18 -30 12 -30 -5 0 -15 9 -22 20 -7 11 -18 20 -25 20 -7 0
-13 5 -13 10 0 20 27 9 48 -20z m2046 6 c-4 -18 -1 -26 14 -30 11 -4 26 -13
32 -21 10 -13 6 -12 -26 1 -35 15 -39 15 -50 0 -17 -24 -25 -19 -11 7 17 30
41 67 45 67 1 0 0 -11 -4 -24z m-2779 -15 c-3 -2 -1 -9 4 -15 4 -6 11 -20 15
-31 5 -16 2 -15 -14 5 -11 14 -20 28 -20 32 0 3 -19 4 -42 1 -43 -6 -47 8 -5
14 12 2 23 8 25 13 2 5 12 4 22 -2 11 -7 17 -14 15 -17z m1504 3 c29 -8 51
-18 48 -20 -7 -7 -96 17 -103 27 -7 12 -6 12 55 -7z m2241 -26 c0 -4 21 -5 47
-1 34 4 44 3 39 -5 -4 -7 -23 -12 -42 -12 -24 0 -34 -5 -34 -15 0 -29 -35 18
-36 49 -1 27 0 28 12 11 8 -10 14 -22 14 -27z m757 20 c-3 -8 -6 -5 -6 6 -1
11 2 17 5 13 3 -3 4 -12 1 -19z m-3824 -34 c31 -41 14 -37 -29 7 -32 33 -34
38 -14 29 14 -6 33 -23 43 -36z m1131 30 c3 -8 2 -12 -4 -9 -6 3 -10 10 -10
16 0 14 7 11 14 -7z m-1750 -10 c9 -23 7 -36 -3 -30 -12 8 -21 46 -11 46 4 0
11 -7 14 -16z m99 -6 c-6 -7 -14 -31 -17 -53 -4 -22 -12 -47 -17 -55 -8 -11
-9 -8 -4 14 18 84 18 89 4 82 -8 -4 -3 2 10 13 25 22 42 21 24 -1z m2481 1
c-8 -13 -94 -62 -100 -57 -2 3 16 16 41 29 25 13 43 29 41 36 -3 7 1 10 9 6 8
-3 12 -9 9 -14z m311 -21 c35 -36 36 -38 10 -21 -36 25 -72 63 -59 63 6 0 28
-19 49 -42z m1273 26 c46 -22 46 -29 -1 -30 -23 0 -64 -4 -92 -9 -27 -4 -47
-5 -43 -1 3 4 28 11 55 15 37 5 48 11 47 24 -2 21 -4 21 34 1z m-3852 -9 c-23
-17 -36 -19 -36 -6 0 5 8 12 18 14 32 9 37 6 18 -8z m1573 -1 c2 -2 -25 -3
-60 -3 -53 1 -58 3 -29 9 32 6 78 3 89 -6z m471 12 c0 -11 -19 -15 -25 -6 -3
5 1 10 9 10 9 0 16 -2 16 -4z m1203 -21 c-7 -21 -13 -19 -13 6 0 11 4 18 10
14 5 -3 7 -12 3 -20z m-1289 9 c30 -12 8 -19 -46 -15 -46 4 -49 5 -23 12 42 9
51 10 69 3z m366 -10 c0 -2 -7 -4 -15 -4 -8 0 -15 4 -15 10 0 5 7 7 15 4 8 -4
15 -8 15 -10z m1870 13 c0 -2 -20 -18 -45 -36 -46 -33 -58 -34 -27 -2 25 26
72 51 72 38z m-685 -17 c3 -5 2 -10 -4 -10 -5 0 -13 5 -16 10 -3 6 -2 10 4 10
5 0 13 -4 16 -10z m199 0 c-11 -11 -123 -27 -113 -16 3 4 26 10 50 15 64 13
75 13 63 1z m707 -20 c19 0 28 -4 24 -11 -4 -6 -23 -8 -42 -6 -33 5 -59 17
-35 17 7 0 13 8 13 18 1 16 2 16 6 0 3 -12 14 -18 34 -18z m-4487 6 c-18 -14
-18 -15 10 -45 41 -43 19 -39 -26 5 -43 40 -45 44 -19 37 10 -3 22 0 25 6 4 6
12 11 19 11 6 0 2 -6 -9 -14z m181 -16 c8 0 15 -4 15 -10 0 -5 -9 -10 -20 -10
-27 0 -27 -36 1 -43 l20 -5 -21 -41 c-11 -23 -22 -41 -24 -41 -7 0 7 51 15 56
22 13 5 21 -43 18 -52 -3 -52 -3 -18 8 19 6 36 12 38 13 8 6 -20 55 -32 55 -8
0 -17 4 -20 9 -4 5 7 7 24 5 20 -4 30 -1 30 8 0 8 5 6 11 -4 5 -10 17 -18 24
-18z m1175 8 c0 -6 -6 -5 -15 2 -8 7 -15 14 -15 16 0 2 7 1 15 -2 8 -4 15 -11
15 -16z m1838 -17 c-13 -1 -45 2 -73 9 -37 9 -58 9 -78 1 -37 -15 -71 -14 -37
1 50 21 84 23 147 8 40 -9 55 -16 41 -19z m-2404 -2 c15 12 15 11 2 -20 -13
-32 -45 -58 -34 -27 3 8 0 25 -8 39 -20 35 -17 48 5 19 16 -20 21 -22 35 -11z
m2590 16 c-22 -17 -34 -19 -34 -6 0 5 8 12 18 14 32 9 36 7 16 -8z m737 -9
c-22 -23 -22 -25 -6 -50 10 -14 13 -26 7 -26 -6 0 -14 9 -17 20 -3 11 -14 20
-23 20 -13 1 -8 9 16 30 39 36 55 40 23 6z m-2941 -1 c-41 -16 -89 -20 -74 -6
10 10 45 18 84 19 21 0 20 -2 -10 -13z m358 -10 c-3 -3 -9 2 -12 12 -6 14 -5
15 5 6 7 -7 10 -15 7 -18z m187 15 c-11 -5 -40 -9 -65 -9 -34 0 -40 3 -25 9
11 5 40 9 65 9 34 0 40 -3 25 -9z m1900 0 c3 -6 -1 -7 -9 -4 -18 7 -21 14 -7
14 6 0 13 -4 16 -10z m-3906 -32 c-13 -13 -35 -32 -49 -43 l-25 -20 15 20 c18
26 74 75 79 69 2 -2 -7 -14 -20 -26z m2579 16 c-16 -8 -28 -17 -28 -19 0 -2
12 -12 28 -20 l27 -16 -35 7 c-19 3 -43 7 -52 7 -30 2 -20 21 20 39 47 20 76
22 40 2z m2092 -38 c0 -9 -30 -7 -30 2 0 4 -3 18 -7 32 l-6 25 22 -27 c11 -14
21 -29 21 -32z m-4107 37 c-13 -2 -33 -2 -45 0 -13 2 -3 4 22 4 25 0 35 -2 23
-4z m1163 -18 c16 7 55 8 60 2 1 -1 5 -13 9 -27 8 -25 7 -25 -13 -6 -16 14
-30 17 -55 12 -28 -5 -37 -2 -58 20 l-24 27 31 -18 c21 -12 38 -15 50 -10z
m1434 15 c-36 -11 -52 -11 -45 0 3 6 21 10 38 9 31 -1 31 -1 7 -9z m448 -2
c-2 -6 -10 -14 -16 -16 -7 -2 -10 2 -6 12 7 18 28 22 22 4z m696 -19 c-10 -11
-28 -26 -39 -31 -12 -7 -7 3 14 26 36 37 59 42 25 5z m-3423 0 c-18 -11 -41
-19 -49 -17 -11 2 -5 9 18 20 49 24 72 22 31 -3z m1139 11 c-14 -4 -38 -8 -55
-8 -25 -1 -27 1 -10 8 11 5 36 8 55 8 32 0 33 -1 10 -8z m2175 0 c-3 -5 -30
-9 -58 -8 l-52 1 45 7 c69 11 72 11 65 0z m-2610 -8 c-27 -22 -84 -62 -91 -62
-14 0 21 32 55 50 39 21 50 24 36 12z m1340 -2 c-16 -4 -46 -8 -65 -8 -32 0
-33 1 -10 8 14 4 43 8 65 8 38 0 39 -1 10 -8z m162 4 c-3 -3 -12 -4 -19 -1 -8
3 -5 6 6 6 11 1 17 -2 13 -5z m734 -9 c19 -8 29 -14 23 -15 -7 0 -27 7 -45 15
-19 8 -29 14 -23 15 7 0 27 -7 45 -15z m-2351 -10 c20 -24 6 -28 -15 -5 -10
11 -13 20 -8 20 6 0 16 -7 23 -15z m1755 -7 c14 -6 6 -7 -24 -3 -24 3 -51 10
-60 16 -19 12 53 1 84 -13z m95 12 c13 -9 13 -10 0 -10 -8 0 -22 5 -30 10 -13
9 -13 10 0 10 8 0 22 -5 30 -10z m312 -25 c-3 -5 -5 -26 -4 -45 2 -30 1 -32
-8 -12 -8 18 -17 22 -57 22 l-48 1 48 21 c26 11 47 27 47 35 0 11 3 11 14 1 8
-7 11 -17 8 -23z m993 25 c7 -11 -9 -11 -45 0 -24 8 -24 8 7 9 17 1 35 -3 38
-9z m-3434 -15 c-18 -8 -45 -15 -60 -14 -20 1 -16 4 19 14 61 18 82 17 41 0z
m1869 9 c0 -7 -66 -34 -82 -33 -7 0 5 9 27 20 42 19 55 23 55 13z m-1719 -20
c-18 -8 -45 -14 -60 -12 -22 3 -19 6 19 15 63 15 81 14 41 -3z m834 6 c-3 -5
-18 -10 -33 -10 -21 0 -24 2 -12 10 20 13 53 13 45 0z m-2279 -55 c-9 -14 -22
-25 -29 -24 -9 0 -9 2 1 6 21 8 13 33 -10 33 -20 0 -23 -6 -26 -49 -2 -42 1
-52 20 -65 14 -10 17 -16 8 -16 -8 0 -31 14 -50 31 -28 24 -31 29 -12 24 20
-6 22 -3 22 33 0 28 -5 42 -16 46 -31 12 -8 16 39 7 42 -8 47 -6 54 13 6 19 7
19 11 3 2 -10 -4 -29 -12 -42z m2885 37 c-5 -10 -18 -25 -27 -33 -16 -12 -16
-10 1 19 20 33 43 46 26 14z m-2124 -42 c3 0 19 10 36 22 l32 21 -29 -31 c-17
-18 -26 -37 -23 -46 4 -11 1 -13 -10 -9 -8 3 -19 0 -23 -8 -6 -9 -8 -1 -8 21
1 19 -2 44 -7 54 -6 14 -5 17 3 12 7 -4 13 -1 13 6 1 7 4 1 6 -14 2 -16 7 -28
10 -28z m194 -8 c21 17 41 29 44 26 3 -3 -14 -22 -39 -42 l-44 -36 -21 43
c-12 24 -21 50 -21 58 1 8 10 -7 21 -33 l21 -47 39 31z m29 42 c0 -2 -7 -4
-15 -4 -8 0 -15 4 -15 10 0 5 7 7 15 4 8 -4 15 -8 15 -10z m1440 7 c0 -11 -70
-54 -77 -47 -4 3 66 56 74 56 2 0 3 -4 3 -9z m2045 0 c-12 -11 -110 -22 -98
-11 7 8 42 15 88 19 11 0 15 -3 10 -8z m285 -58 c0 -32 5 -46 23 -59 19 -14
19 -15 2 -9 -11 4 -25 8 -30 8 -15 0 -39 27 -25 27 5 0 10 23 10 53 0 37 3 48
10 37 5 -8 10 -34 10 -57z m-4545 27 c12 -19 -12 -10 -31 11 -19 22 -19 22 3
10 12 -6 25 -16 28 -21z m1260 -7 c-8 -20 -13 -38 -11 -40 2 -3 19 3 38 12
l33 16 -29 -25 c-16 -13 -38 -27 -48 -29 -15 -4 -17 -1 -12 21 8 31 32 82 39
82 3 0 -2 -16 -10 -37z m718 30 c-7 -2 -19 -2 -25 0 -7 3 -2 5 12 5 14 0 19
-2 13 -5z m332 -3 c16 -7 13 -9 -17 -9 -20 -1 -39 -5 -43 -11 -3 -5 -20 -19
-38 -32 l-32 -22 30 36 c38 46 61 55 100 38z m-258 -25 c-15 -29 -47 -69 -47
-59 0 5 7 18 15 28 19 25 19 36 1 36 -8 0 -17 4 -20 8 -3 5 10 8 28 8 31 -1
33 -3 23 -21z m453 -16 c-12 -23 -24 -38 -27 -35 -5 5 35 76 43 76 2 0 -5 -18
-16 -41z m454 10 c-7 -11 9 -12 22 -1 5 5 20 6 34 1 23 -6 22 -7 -9 -8 l-33
-1 17 -27 c16 -25 14 -25 -19 6 -20 19 -36 41 -36 49 0 12 3 12 15 2 8 -7 12
-16 9 -21z m1020 17 c-11 -8 -33 -18 -47 -21 -15 -4 -27 -12 -27 -18 0 -6 -3
-7 -7 -3 -13 13 -6 19 39 37 53 22 69 24 42 5z m-3844 -31 c44 -32 27 -32 -25
0 -22 13 -33 25 -24 25 8 0 30 -11 49 -25z m3021 -16 c-12 -19 -21 -30 -21
-26 0 12 33 67 38 63 1 -2 -6 -19 -17 -37z m-1285 7 l29 -15 -35 6 c-19 3 -48
12 -65 19 l-30 13 36 -4 c20 -2 50 -10 65 -19z m679 -16 c-4 -17 -9 -29 -12
-26 -3 2 -2 19 2 36 4 17 9 29 12 26 3 -2 2 -19 -2 -36z m240 30 c-28 -12 -47
-12 -40 0 3 6 18 10 33 9 24 0 25 -1 7 -9z m835 -25 c-13 -14 -26 -23 -28 -20
-3 3 5 16 18 30 13 14 26 23 28 20 3 -3 -5 -16 -18 -30z m-3596 9 c5 -14 4
-15 -9 -4 -17 14 -19 20 -6 20 5 0 12 -7 15 -16z m907 -11 c21 -16 38 -30 38
-33 0 -6 -109 -60 -109 -55 0 3 18 17 41 32 l41 27 -34 28 c-43 36 -28 36 23
1z m508 -2 c-10 -29 -55 -78 -64 -70 -6 6 57 99 67 99 4 0 2 -13 -3 -29z m160
-13 c-12 -24 -24 -45 -26 -48 -10 -10 9 45 23 68 24 37 26 25 3 -20z m2531 30
c-1 -33 -24 -45 -70 -38 l-45 6 47 8 c26 5 49 14 52 22 7 17 16 18 16 2z m204
-13 c-14 -22 -34 -34 -34 -20 0 5 42 45 47 45 2 0 -4 -11 -13 -25z m-2391 0
c-3 -9 -8 -14 -10 -11 -3 3 -2 9 2 15 9 16 15 13 8 -4z m962 -10 c-16 -14 -39
-25 -49 -25 -24 0 -21 2 29 29 52 27 57 26 20 -4z m326 2 c-10 -9 -11 -8 -5 6
3 10 9 15 12 12 3 -3 0 -11 -7 -18z m-3401 -7 c30 -24 14 -27 -19 -4 -19 14
-25 14 -32 3 -5 -8 -9 -9 -9 -3 0 29 26 31 60 4z m248 -55 l0 -30 -14 33 c-9
20 -12 43 -8 55 7 22 8 21 15 -3 4 -14 7 -38 7 -55z m290 53 c-7 -13 -11 -26
-10 -30 1 -3 -5 -9 -13 -12 -22 -8 -18 14 7 41 27 29 32 29 16 1z m1341 -38
c24 -32 24 -33 3 -15 -19 15 -25 16 -31 6 -6 -9 -10 -1 -13 23 -4 37 3 59 11
34 2 -7 16 -29 30 -48z m2070 34 l26 -14 -35 0 c-19 0 -44 -7 -54 -15 -24 -18
-45 -20 -28 -3 9 9 6 15 -16 25 -26 12 -26 12 11 7 36 -6 52 8 25 20 -7 3 0 2
16 -1 16 -3 41 -12 55 -19z m181 22 c0 -5 -65 -46 -73 -46 -3 0 -3 9 0 20 3
11 9 17 14 14 5 -3 17 0 26 5 19 11 33 14 33 7z m-4000 -36 c0 -3 14 -14 31
-24 17 -10 28 -20 25 -23 -3 -3 -17 2 -30 11 -36 23 -41 21 -61 -24 -23 -51
-32 -45 -10 6 8 21 14 43 11 49 -2 6 5 11 15 11 11 0 19 -3 19 -6z m486 -28
c-15 -28 -14 -31 5 -43 18 -13 13 -14 -48 -15 -37 -1 -57 1 -43 3 49 8 54 11
39 30 -12 15 -12 16 4 10 13 -5 22 1 35 22 22 38 28 32 8 -7z m1398 5 c4 -19
3 -26 -4 -22 -5 3 -10 18 -10 32 0 32 5 28 14 -10z m-51 -14 c-3 -21 -9 -42
-14 -47 -4 -5 -6 0 -4 10 12 60 16 74 20 74 2 0 1 -17 -2 -37z m523 27 c31 0
11 -18 -32 -29 -55 -14 -69 -8 -22 8 27 10 30 14 18 22 -12 9 -12 10 3 5 10
-3 25 -6 33 -6z m254 -31 c-38 -31 -52 -36 -44 -16 6 14 67 55 74 50 3 -3 -11
-18 -30 -34z m666 26 c14 -13 13 -15 -8 -15 -13 1 -34 7 -48 15 l-25 14 33 1
c18 0 40 -7 48 -15z m109 5 c16 -7 14 -9 -15 -9 -19 0 -42 4 -50 9 -11 7 -8
10 15 9 17 0 39 -4 50 -9z m955 -5 c0 -8 -4 -15 -10 -15 -5 0 -7 7 -4 15 4 8
8 15 10 15 2 0 4 -7 4 -15z m-3988 -16 c10 -5 16 -15 12 -21 -4 -6 -9 -7 -13
0 -3 5 -28 17 -56 26 l-50 16 44 -6 c24 -2 52 -9 63 -15z m259 4 c-15 -29 -40
-59 -41 -50 0 14 33 67 43 67 4 0 3 -8 -2 -17z m2073 6 c-4 -7 4 -20 17 -31
l24 -19 -28 13 c-26 11 -31 10 -48 -12 -10 -14 -19 -22 -19 -17 0 12 24 51 40
64 19 16 23 16 14 2z m109 -2 c18 -8 39 -22 47 -32 11 -13 1 -10 -35 10 -71
40 -75 48 -12 22z m374 7 c-10 -10 -77 -22 -77 -14 0 5 15 11 33 13 17 2 36 5
41 5 5 1 7 -1 3 -4z m954 -21 c-12 -20 -14 -14 -5 12 4 9 9 14 11 11 3 -2 0
-13 -6 -23z m357 -8 c3 -3 -2 -5 -12 -5 -18 0 -86 26 -86 34 0 5 91 -22 98
-29z m-4272 -26 c15 -26 -6 -15 -37 18 l-34 36 32 -22 c18 -12 35 -27 39 -32z
m647 -19 c18 0 39 -5 47 -10 12 -8 12 -10 1 -10 -9 0 -12 -10 -9 -35 2 -19 0
-35 -4 -35 -4 0 -8 16 -8 35 0 19 -3 35 -7 35 -5 0 -18 3 -31 6 -18 5 -21 3
-16 -12 5 -18 5 -18 -6 -1 -7 10 -13 37 -15 60 l-4 42 11 -37 c9 -34 14 -38
41 -38z m387 61 c0 -4 15 -13 33 -19 42 -13 5 -16 -41 -3 -24 7 -43 6 -70 -5
l-37 -15 25 20 c31 25 90 40 90 22z m2235 -21 c15 -16 14 -17 -20 -6 -19 6
-37 16 -39 22 -6 17 40 5 59 -16z m779 -5 c43 -29 76 -33 77 -7 1 16 2 16 6 0
2 -10 9 -18 16 -18 6 0 2 -6 -9 -14 -11 -9 -23 -11 -29 -6 -6 5 -21 7 -33 3
-16 -4 -22 -1 -22 11 0 8 -13 22 -30 31 -16 9 -30 18 -30 20 0 11 19 4 54 -20z
m-2694 -5 c-10 -19 -8 -20 37 -21 43 -1 45 -2 19 -9 -28 -9 -86 -3 -86 8 0 6
31 42 37 42 2 0 -1 -9 -7 -20z m525 -11 c46 -28 13 -23 -36 7 -27 15 -34 23
-19 19 14 -4 39 -16 55 -26z m329 -6 c-10 -7 -34 -13 -53 -13 l-36 1 33 14
c18 8 31 19 27 25 -4 6 5 5 20 -2 25 -11 25 -13 9 -25z m477 10 c-12 -20 -14
-14 -5 12 4 9 9 14 11 11 3 -2 0 -13 -6 -23z m1204 1 c30 -21 -3 -17 -50 6
l-40 20 35 -6 c19 -4 44 -13 55 -20z m-3447 -29 c-10 -23 -28 -34 -28 -18 0 7
31 43 36 43 2 0 -2 -11 -8 -25z m2118 4 c19 -22 19 -22 -3 -10 -24 12 -39 31
-25 31 5 0 17 -10 28 -21z m1273 -26 c-26 -44 -39 -60 -39 -49 0 18 45 86 57
86 3 0 -5 -17 -18 -37z m457 -15 c-4 -52 -5 -53 -34 -50 -17 2 -43 8 -59 13
-23 7 -18 8 25 5 47 -3 52 -1 52 18 0 24 10 66 16 66 2 0 2 -24 0 -52z m-888
-8 c20 0 31 -4 27 -10 -4 -6 -15 -8 -26 -5 -14 5 -22 0 -28 -17 -8 -18 -10
-19 -10 -5 -1 10 -11 21 -23 26 -17 6 -18 9 -5 14 10 4 14 14 11 29 -3 19 -2
18 8 -4 10 -23 18 -28 46 -28z m-2546 18 c-7 -7 -12 -8 -12 -2 0 14 12 26 19
19 2 -3 -1 -11 -7 -17z m1423 8 c61 -9 124 -18 140 -20 17 -2 37 -6 45 -9 22
-8 71 -18 100 -21 14 -2 34 -7 45 -13 11 -6 52 -20 90 -33 63 -20 102 -37 295
-128 30 -15 64 -34 74 -44 11 -10 23 -18 26 -18 4 0 20 20 35 45 16 24 31 43
33 40 3 -3 -8 -23 -24 -46 l-28 -41 29 -25 30 -24 30 33 c17 18 41 42 55 53
14 11 3 -4 -25 -33 l-50 -53 24 -20 c13 -11 30 -18 38 -15 7 3 13 -1 13 -9 0
-21 63 -67 72 -52 4 7 8 10 9 7 0 -3 2 -14 4 -24 2 -11 24 -37 49 -58 90 -77
219 -226 300 -343 26 -40 41 -54 49 -46 7 7 1 22 -19 48 -29 40 -5 28 28 -14
11 -12 25 -19 35 -17 14 4 18 -1 19 -20 2 -23 0 -24 -13 -10 -14 13 -17 13
-29 -5 -8 -11 -11 -27 -7 -37 6 -16 7 -15 21 2 13 18 14 17 8 -9 -5 -23 4 -50
45 -130 28 -56 53 -104 55 -106 2 -2 10 2 19 9 8 7 15 8 15 2 0 -5 -6 -15 -14
-21 -11 -10 -12 -19 -4 -42 5 -16 13 -29 17 -29 4 0 7 -8 7 -17 1 -10 13 -58
28 -108 15 -49 29 -101 32 -115 2 -14 9 -45 14 -70 24 -109 31 -196 30 -362 0
-136 3 -178 12 -178 9 0 10 -3 2 -8 -6 -4 -16 -47 -22 -96 -11 -81 -10 -90 6
-102 15 -12 15 -12 -5 -7 -19 4 -23 1 -23 -17 0 -20 4 -22 33 -16 23 4 28 3
17 -4 -13 -8 -10 -14 15 -35 l30 -26 -44 21 c-27 13 -47 18 -53 12 -10 -10
-50 -164 -43 -170 7 -8 45 10 40 19 -6 9 72 5 82 -5 4 -3 -12 -6 -33 -6 -41 0
-90 -27 -67 -36 7 -3 23 -14 37 -25 25 -19 25 -22 11 -49 -23 -44 -19 -58 18
-63 17 -2 5 -4 -28 -4 -33 0 -53 1 -44 4 15 3 57 90 48 97 -2 1 -20 12 -40 23
l-37 21 -16 -36 c-25 -58 -61 -156 -61 -167 0 -5 -6 -16 -13 -24 -11 -12 -9
-17 17 -33 37 -24 39 -38 9 -57 -22 -13 -23 -13 -5 6 23 26 22 29 -13 42 -28
9 -31 8 -45 -19 -8 -16 -15 -35 -15 -42 0 -7 -37 -65 -81 -128 -52 -73 -79
-121 -75 -133 3 -13 0 -16 -13 -12 -12 3 -28 -9 -53 -42 -20 -27 -80 -92 -132
-147 -81 -84 -94 -102 -85 -118 10 -18 11 -18 37 0 45 31 59 35 27 8 -16 -14
-34 -26 -39 -26 -4 0 -6 -11 -2 -23 4 -19 0 -26 -20 -36 -28 -12 -40 -9 -30 8
4 6 13 8 21 4 8 -3 15 0 15 6 0 6 -7 11 -15 11 -9 0 -12 6 -9 15 4 8 1 22 -6
30 -10 12 -24 5 -91 -47 -74 -56 -98 -84 -51 -59 12 6 31 11 44 10 20 0 18 -2
-9 -12 -44 -17 -47 -22 -29 -49 9 -12 16 -29 16 -38 0 -8 -14 7 -31 34 -17 27
-34 44 -37 39 -4 -6 -35 -25 -70 -42 -56 -28 -62 -34 -50 -48 11 -15 11 -15
-6 -6 -15 8 -30 5 -65 -12 -56 -28 -132 -62 -166 -75 -23 -9 -25 -12 -14 -32
12 -23 12 -23 -10 -4 -21 20 -22 19 -61 -19 -41 -40 -57 -39 -19 1 l22 23 -54
-19 c-30 -10 -79 -24 -109 -31 l-55 -13 44 -8 c25 -4 48 -11 53 -16 10 -10
-46 -7 -62 3 -17 11 -123 7 -155 -5 -44 -17 -18 -31 35 -19 31 7 46 7 48 0 2
-6 15 -8 30 -5 21 4 24 3 12 -5 -8 -6 -45 -11 -82 -11 -67 0 -68 0 -68 -27 0
-14 -3 -24 -6 -21 -3 3 -5 24 -6 46 0 39 -2 41 -27 37 -79 -14 -217 -22 -300
-18 -86 4 -93 3 -87 -13 6 -16 5 -17 -11 -2 -10 9 -52 21 -93 27 -165 25 -217
34 -259 48 -47 15 -65 6 -53 -25 3 -10 0 -13 -9 -10 -8 3 -13 11 -11 17 1 6 3
16 5 22 3 14 -72 41 -97 35 -11 -3 -26 3 -35 14 -9 10 -38 26 -65 35 -27 8
-58 22 -69 30 -12 8 -27 15 -35 15 -7 0 -26 10 -41 21 -16 12 -34 19 -39 15
-5 -3 -12 0 -15 8 -3 8 -27 22 -52 32 -39 14 -53 15 -79 6 l-31 -11 23 19 c24
20 22 40 -4 40 -8 0 -14 4 -14 10 0 5 -10 14 -21 21 -17 9 -30 7 -60 -7 -22
-9 -42 -15 -45 -11 -3 3 11 11 30 18 20 7 36 16 36 20 0 3 -27 27 -61 54 -52
41 -65 46 -92 41 -30 -6 -30 -6 -12 9 19 16 19 16 -10 10 -28 -6 -29 -6 -10 9
19 14 18 16 -35 70 -30 31 -70 62 -88 68 -23 9 -28 14 -18 18 13 4 12 10 -7
33 -22 28 -22 28 -61 12 -21 -9 -40 -14 -43 -11 -3 3 11 12 31 20 38 16 43 25
24 44 -18 18 -27 15 -38 -10 -8 -19 -9 -16 -5 15 4 33 -2 48 -52 122 -40 61
-62 85 -77 85 -15 0 -17 3 -8 8 10 7 4 26 -24 83 -20 41 -43 78 -50 82 -8 5
-12 13 -8 18 3 5 -1 20 -9 32 -8 12 -20 39 -27 60 -10 31 -16 38 -32 34 -19
-5 -19 -5 -2 14 12 13 15 23 8 27 -6 4 -14 27 -18 51 -4 24 -16 71 -27 103
-11 33 -21 76 -23 96 -1 19 -10 40 -20 47 -11 8 -13 14 -6 17 9 3 9 27 0 98
-6 52 -11 132 -11 178 1 59 -2 82 -10 77 -6 -4 -9 -16 -6 -26 3 -12 0 -19 -9
-19 -8 0 -14 -4 -14 -8 0 -4 -15 -9 -32 -10 l-33 -2 28 16 c21 11 27 22 27 47
0 18 5 39 11 47 8 12 9 10 4 -7 -9 -31 2 -48 21 -32 18 15 19 109 2 110 -10 0
-10 2 0 6 7 3 12 22 12 46 0 23 7 77 15 120 20 104 21 101 -21 94 -29 -5 -34
-3 -25 7 9 10 3 19 -23 40 -34 25 -34 26 -19 56 19 39 12 57 -24 63 -18 2 -11
5 20 6 26 0 47 -1 47 -4 0 -3 -9 -23 -20 -45 -11 -22 -20 -43 -20 -47 0 -15
89 -58 99 -48 5 6 18 46 29 90 11 44 24 88 28 99 7 17 5 17 -24 2 -17 -9 -37
-16 -44 -15 -7 0 6 9 28 19 55 24 63 38 33 61 -22 16 -25 16 -41 2 -28 -25
-21 -9 12 28 16 19 30 29 30 24 0 -6 -5 -16 -12 -23 -9 -9 -6 -14 13 -21 22
-8 26 -5 46 41 13 28 23 54 23 58 0 20 122 238 196 350 72 109 80 126 64 132
-24 9 -43 68 -32 99 9 22 11 20 28 -28 10 -29 24 -55 31 -57 10 -4 37 21 114
110 14 16 52 52 84 79 32 28 66 57 75 65 31 29 135 106 182 136 27 16 48 35
48 42 0 7 5 10 10 7 18 -11 92 38 106 70 12 27 13 28 14 7 l0 -23 48 24 c26
14 70 34 97 45 28 11 49 25 47 32 -2 8 4 11 19 7 12 -3 45 3 73 13 28 10 94
28 146 40 52 12 106 27 120 33 63 27 438 36 595 13z m1385 -28 c0 -6 -7 -5
-15 2 -8 7 -15 17 -15 22 0 6 7 5 15 -2 8 -7 15 -17 15 -22z m-4125 2 c-10
-11 -23 -20 -28 -20 -6 0 -2 9 8 20 10 11 23 20 28 20 6 0 2 -9 -8 -20z m95 5
c17 -9 30 -19 30 -24 0 -12 -38 -21 -85 -20 l-40 1 49 11 50 12 -25 17 c-30
21 -18 23 21 3z m4477 -7 c-3 -8 -6 -5 -6 6 -1 11 2 17 5 13 3 -3 4 -12 1 -19z
m-2691 -19 c10 -16 -21 -9 -46 11 l-25 20 33 -11 c17 -6 35 -15 38 -20z m3078
-29 c9 0 15 -4 11 -10 -3 -5 7 -16 22 -24 37 -20 5 -21 -33 -2 -15 8 -41 13
-58 10 l-31 -4 27 13 27 12 -20 25 c-29 39 -22 49 10 13 15 -18 35 -33 45 -33z
m-4491 43 c-13 -2 -33 -2 -45 0 -13 2 -3 4 22 4 25 0 35 -2 23 -4z m772 -2
c-6 -5 -26 -12 -45 -15 l-35 -6 30 15 c34 16 64 20 50 6z m501 -6 c29 -15 29
-15 4 -14 -14 0 -41 7 -60 14 l-35 13 31 1 c18 1 45 -6 60 -14z m1515 -4 c-9
-6 -3 -12 20 -20 18 -6 30 -13 27 -16 -3 -3 -24 2 -48 10 -23 8 -52 15 -64 16
-11 1 -1 7 24 13 46 13 65 11 41 -3z m739 12 c0 -3 -7 -15 -17 -25 -15 -17
-14 -18 18 -19 34 -1 34 -1 -10 -13 -25 -6 -46 -17 -49 -24 -5 -16 -22 -5 -22
14 0 8 6 14 14 14 8 0 23 14 33 30 16 28 33 40 33 23z m-2521 -19 c2 -2 -14
-4 -36 -4 -38 0 -42 -3 -64 -47 -13 -27 -25 -50 -26 -52 -3 -5 -40 39 -54 64
-8 14 -3 12 18 -8 l30 -28 17 25 c9 14 16 32 16 40 0 8 8 16 18 19 17 4 73 -2
81 -9z m159 -20 c10 -21 18 -24 67 -24 35 0 54 -4 50 -10 -3 -5 -24 -10 -46
-10 -23 0 -39 -5 -39 -12 0 -19 -39 22 -42 46 -2 11 -9 22 -15 22 -22 2 -24 4
-18 14 9 14 31 2 43 -26z m2517 26 c3 -5 1 -10 -4 -10 -6 0 -11 5 -11 10 0 6
2 10 4 10 3 0 8 -4 11 -10z m48 -41 c-6 -6 -7 3 -4 23 4 28 6 29 9 9 2 -13 0
-27 -5 -32z m-3384 37 c-8 -8 -109 -46 -109 -40 0 7 82 44 99 44 8 0 12 -2 10
-4z m101 -5 c0 -4 -12 -16 -27 -27 -46 -33 -53 -36 -47 -20 3 8 12 17 21 20 8
4 13 12 10 20 -4 9 2 14 19 14 13 0 24 -4 24 -7z m2470 -1 l25 -8 -25 0 c-14
0 -34 3 -45 8 l-20 9 20 -1 c11 0 31 -4 45 -8z m204 -11 c-4 -6 1 -10 12 -8
26 3 75 -12 69 -21 -3 -4 2 -13 10 -20 8 -7 15 -17 15 -23 0 -6 -12 1 -27 15
-39 36 -82 42 -110 15 -35 -32 -37 -14 -2 21 32 32 46 41 33 21z m-2954 -44
c0 -17 -2 -17 -10 -5 -5 8 -10 24 -10 35 0 17 2 17 10 5 5 -8 10 -24 10 -35z
m305 35 c3 -5 1 -10 -4 -10 -6 0 -11 5 -11 10 0 6 2 10 4 10 3 0 8 -4 11 -10z
m615 0 c-14 -4 -32 -8 -40 -9 -13 -1 -13 0 0 9 8 5 26 9 40 9 l25 -1 -25 -8z
m2826 -28 c1 -2 22 7 46 19 39 20 42 20 26 2 -17 -19 -16 -20 28 -42 26 -12
44 -24 41 -27 -3 -3 -28 6 -56 21 -55 30 -86 28 -76 -5 11 -34 -5 -22 -21 15
-16 40 -18 69 -2 40 6 -11 12 -21 14 -23z m-889 6 c-3 -8 -6 -5 -6 6 -1 11 2
17 5 13 3 -3 4 -12 1 -19z m-3156 -48 c6 0 6 -7 -1 -19 -13 -26 -13 -33 3 -26
6 3 3 0 -7 -7 -11 -7 -28 -21 -38 -31 -11 -10 -22 -16 -26 -13 -3 4 1 12 10
19 18 14 37 68 40 111 l1 31 4 -32 c2 -18 9 -33 14 -33z m129 50 c24 -15 7
-19 -20 -5 -15 8 -19 14 -10 14 8 1 22 -3 30 -9z m2865 -10 c-3 -5 -18 -10
-33 -10 -21 0 -24 2 -12 10 20 13 53 13 45 0z m-3275 -5 c0 -9 -64 -45 -80
-45 -8 1 5 12 30 25 51 27 50 27 50 20z m4624 -40 l16 -40 -20 24 c-11 13 -20
32 -20 44 0 26 4 21 24 -28z m-3900 13 c-14 -47 -34 -91 -40 -86 -3 4 4 29 17
57 22 52 36 69 23 29z m98 -24 c-9 -25 -18 -39 -20 -31 -3 15 24 77 33 77 2 0
-4 -21 -13 -46z m2615 24 c-3 -8 -6 -5 -6 6 -1 11 2 17 5 13 3 -3 4 -12 1 -19z
m-2991 -15 c-10 -10 -19 5 -10 18 6 11 8 11 12 0 2 -7 1 -15 -2 -18z m173 -51
c0 -13 -3 -20 -9 -17 -5 3 -9 27 -9 53 1 42 2 44 9 17 4 -16 8 -40 9 -53z
m3281 47 c0 -6 -4 -7 -10 -4 -5 3 -10 11 -10 16 0 6 5 7 10 4 6 -3 10 -11 10
-16z m910 16 c0 -7 -36 -21 -80 -30 -51 -11 -29 6 27 21 27 7 49 13 51 13 1 1
2 -1 2 -4z m-3726 -24 c13 -6 27 -15 31 -20 7 -12 -8 -15 -19 -3 -4 4 -26 15
-49 25 -43 18 -12 16 37 -2z m111 -2 c22 -11 32 -17 22 -14 -10 3 -24 5 -31 5
-7 0 -21 7 -32 15 -27 20 -7 17 41 -6z m2925 -4 c-7 -8 -17 -15 -23 -15 -5 0
-2 9 8 20 21 23 35 19 15 -5z m-3784 -10 c-11 -8 -25 -15 -30 -15 -6 0 -2 7 8
15 11 8 25 15 30 15 6 0 2 -7 -8 -15z m101 -7 c-3 -8 -6 -5 -6 6 -1 11 2 17 5
13 3 -3 4 -12 1 -19z m-227 -21 c0 -5 -4 -5 -10 -2 -5 3 -10 14 -10 23 0 15 2
15 10 2 5 -8 10 -19 10 -23z m3591 5 c-11 -16 -28 -35 -37 -43 -16 -13 -16
-12 -3 11 8 14 15 30 15 35 1 6 2 13 3 18 0 4 10 7 22 7 l20 0 -20 -28z m646
-64 c-2 -18 -4 -4 -4 32 0 36 2 50 4 33 2 -18 2 -48 0 -65z m-3023 57 c3 -8 1
-15 -4 -15 -6 0 -10 7 -10 15 0 8 2 15 4 15 2 0 6 -7 10 -15z m2652 -10 c-16
-25 -16 -27 6 -45 13 -11 18 -19 11 -20 -6 0 -15 5 -18 10 -3 6 -34 10 -68 11
-63 1 -64 2 -14 13 15 4 25 11 22 15 -3 5 4 7 16 4 14 -4 25 1 35 16 21 30 30
26 10 -4z m-2996 11 c0 -2 -19 -18 -42 -35 -24 -18 -51 -46 -61 -64 -10 -18
-16 -25 -14 -17 2 8 -6 22 -17 31 -12 9 -29 32 -39 50 -17 32 -16 31 19 -9
l37 -42 19 31 c10 17 22 29 24 26 3 -3 20 3 37 14 34 20 37 21 37 15z m-472
-46 c12 -11 22 -23 22 -26 0 -8 -54 32 -71 52 -13 16 -12 16 6 6 11 -5 30 -20
43 -32z m4107 9 l36 -32 26 24 c22 20 24 21 15 4 -11 -22 -50 -65 -58 -65 -3
0 -2 5 2 11 3 6 -11 28 -32 50 -46 47 -39 52 11 8z m-4796 -34 c1 -17 -1 -17
-9 -5 -5 8 -9 26 -9 40 0 23 1 23 9 5 5 -11 9 -29 9 -40z m106 45 c-3 -5 -12
-10 -18 -10 -7 0 -6 4 3 10 19 12 23 12 15 0z m3622 4 c-3 -3 -12 -4 -19 -1
-8 3 -5 6 6 6 11 1 17 -2 13 -5z m658 -29 c54 -25 46 -34 -10 -11 -29 13 -35
13 -46 0 -6 -8 -9 -17 -6 -21 4 -3 -5 -12 -19 -20 -34 -17 -39 -17 -24 2 10
12 7 19 -17 40 l-28 27 32 -18 c26 -14 34 -15 47 -5 9 7 13 17 10 22 -8 14 6
10 61 -16z m-4330 5 c-3 -5 -16 -10 -28 -9 -21 0 -21 1 -2 9 28 12 37 12 30 0z
m1381 1 c-3 -5 -18 -12 -33 -15 -74 -18 -104 -23 -96 -17 8 7 69 27 108 35 11
2 21 4 23 5 2 0 1 -3 -2 -8z m-787 -22 c18 -11 31 -23 28 -26 -3 -3 -12 -1
-19 3 -7 5 -25 7 -40 5 -17 -1 -28 2 -28 9 0 7 7 9 16 6 14 -5 15 -4 4 9 -17
21 -1 19 39 -6z m-373 -14 c-8 -8 -18 -15 -22 -15 -3 0 -1 7 6 15 7 8 17 15
22 15 5 0 3 -7 -6 -15z m291 9 c-3 -3 -12 -4 -19 -1 -8 3 -5 6 6 6 11 1 17 -2
13 -5z m3294 -30 c-11 -15 -21 -24 -21 -20 0 12 33 57 37 52 3 -3 -4 -17 -16
-32z m-2916 6 c4 -6 -10 -10 -35 -10 -25 0 -39 4 -35 10 3 6 19 10 35 10 16 0
32 -4 35 -10z m4029 -4 c-4 -10 3 -16 23 -18 21 -2 13 -6 -30 -14 l-58 -11 28
29 c29 30 46 37 37 14z m-4748 -11 c-11 -8 -25 -15 -30 -15 -6 0 -2 7 8 15 11
8 25 15 30 15 6 0 2 -7 -8 -15z m1018 -10 c-5 -11 7 -15 53 -18 l58 -3 -66 -2
c-66 -2 -66 -2 -61 23 2 14 8 22 13 20 4 -3 6 -12 3 -20z m2722 -82 c-1 -2
-25 -5 -52 -8 l-49 -4 42 11 42 11 -4 46 -5 46 15 -50 c8 -27 13 -51 11 -52z
m593 75 c0 -13 2 -41 5 -63 l6 -40 -12 35 c-6 19 -13 37 -14 39 -2 2 -23 -5
-48 -14 -24 -9 -50 -15 -58 -13 -7 3 13 13 46 22 40 12 60 23 63 37 7 26 13
24 12 -3z m-4020 -5 c0 -5 -17 -21 -37 -38 -25 -21 -34 -25 -29 -12 5 14 0 17
-35 17 -58 0 -36 20 33 30 30 4 57 8 62 9 4 0 7 -2 6 -6z m267 -19 c-4 -11 -2
-15 6 -11 7 2 24 7 38 11 24 7 24 6 6 -8 -34 -27 -88 -18 -65 11 15 18 22 16
15 -3z m-675 -51 c-24 -46 -28 -28 -5 25 9 20 18 32 21 25 2 -6 -5 -29 -16
-50z m580 9 c-14 -5 -79 17 -86 28 -3 4 18 1 46 -8 28 -9 46 -18 40 -20z
m3713 23 c-10 -8 -28 -14 -39 -14 -16 1 -13 4 10 14 40 19 53 19 29 0z m-4163
-25 c10 0 19 -4 19 -9 0 -4 -11 -6 -24 -4 -20 4 -25 0 -31 -26 -3 -17 -11 -33
-16 -36 -5 -4 -7 0 -4 7 2 7 10 33 16 58 7 27 14 38 16 28 3 -10 13 -18 24
-18z m4444 20 c4 -6 -8 -10 -30 -10 -22 0 -34 4 -30 10 3 6 17 10 30 10 13 0
27 -4 30 -10z m-552 -28 c16 -14 19 -13 33 4 15 19 15 19 8 -1 -4 -11 -7 -28
-8 -37 0 -12 -4 -14 -13 -7 -8 8 -23 7 -48 -1 -20 -7 -39 -10 -41 -7 -3 3 9 9
25 15 36 13 37 18 14 45 -20 23 -2 16 30 -11z m444 16 c-2 -60 4 -80 21 -74
30 12 -19 -29 -53 -43 l-30 -13 23 24 c16 18 22 36 22 71 0 26 4 47 9 47 5 0
9 -6 8 -12z m383 -8 c12 -8 10 -10 -10 -10 -14 0 -32 5 -40 10 -12 8 -10 10
10 10 14 0 32 -5 40 -10z m-3970 -14 c-14 -7 -43 -16 -65 -19 -36 -5 -35 -4
15 13 65 22 85 25 50 6z m3373 -25 c-37 -31 -41 -41 -15 -42 10 0 3 -7 -17
-15 -18 -8 -50 -14 -70 -12 l-36 4 40 8 c29 7 51 22 79 53 21 24 41 41 45 37
3 -3 -9 -18 -26 -33z m-3634 3 c-13 -7 -35 -13 -49 -14 -23 0 -22 2 10 18 41
21 77 17 39 -4z m406 0 c17 -8 22 -12 12 -9 -10 3 -39 5 -63 5 -28 0 -43 4
-39 10 9 14 55 12 90 -6z m3740 7 c-11 -5 -36 -11 -55 -15 l-35 -6 30 15 c17
8 41 14 55 14 23 0 23 -1 5 -8z m-4627 -21 c-7 -11 -17 -20 -22 -20 -5 0 -1 9
9 20 10 11 20 20 22 20 2 0 -2 -9 -9 -20z m224 -73 c-2 -4 -12 -3 -22 3 -10 5
-30 10 -44 10 -23 0 -24 -2 -15 -32 5 -17 6 -34 4 -37 -8 -7 -13 2 -20 42 l-7
37 46 0 46 0 2 38 c1 37 1 37 7 -8 4 -25 5 -48 3 -53z m4423 44 c-19 -38 -28
-41 -14 -5 13 35 20 46 26 41 2 -3 -3 -19 -12 -36z m-977 -1 c46 -21 55 -31
20 -23 -22 4 -23 4 -4 -11 12 -10 15 -16 7 -16 -7 0 -22 12 -33 26 -12 14 -30
30 -42 34 -13 5 -15 9 -6 9 8 0 34 -8 58 -19z m867 -6 c-26 -20 -75 -46 -75
-40 0 8 74 56 85 56 5 0 1 -8 -10 -16z m-4570 -13 c-3 -6 -11 -11 -17 -11 -6
0 -6 6 2 15 14 17 26 13 15 -4z m788 -12 c-10 -17 -24 -36 -32 -42 -12 -10
-12 -8 -1 13 13 26 40 60 47 60 2 0 -4 -14 -14 -31z m-317 -8 c48 -22 65 -41
35 -41 -11 0 -24 7 -29 16 -4 8 -28 21 -53 29 -32 10 -37 14 -19 14 14 0 44
-8 66 -18z m-325 -59 c-10 -3 -91 45 -91 54 0 3 22 -7 50 -23 27 -15 46 -29
41 -31z m4124 49 c-13 -11 -91 -23 -79 -11 5 4 23 10 39 13 17 2 34 5 40 6 6
0 6 -2 0 -8z m305 -16 c-47 -18 -71 -18 -40 0 14 8 36 14 50 14 22 0 21 -2
-10 -14z m-3940 -35 c-12 -12 -25 -19 -28 -15 -4 3 4 15 18 25 32 24 38 18 10
-10z m-780 10 c-8 -5 -33 -9 -55 -9 l-40 2 35 7 c19 4 44 8 55 9 16 0 17 -1 5
-9z m90 -10 c-26 -19 -70 -36 -54 -20 10 10 66 40 74 40 3 0 -6 -9 -20 -20z
m3988 -7 c30 -19 33 -53 4 -53 -12 0 -13 3 -4 12 18 18 15 25 -14 32 -17 5
-32 2 -43 -7 -9 -8 -27 -20 -41 -26 -21 -10 -19 -7 8 17 23 21 29 31 20 35 -7
3 -1 6 14 6 15 1 40 -7 56 -16z m849 -26 c7 0 20 -9 30 -19 9 -10 11 -18 6
-18 -7 0 -9 -15 -6 -42 4 -29 3 -39 -5 -34 -7 4 -12 25 -12 46 0 36 -3 41 -42
59 -35 16 -37 19 -13 14 16 -4 35 -6 42 -6z m-290 -21 c8 -8 -26 -8 -67 0 -19
4 -27 10 -20 14 12 7 76 -3 87 -14z m-4427 -11 c-7 -8 -18 -15 -24 -15 -6 0
-2 7 8 15 25 19 32 19 16 0z m105 5 c3 -5 1 -10 -4 -10 -6 0 -11 5 -11 10 0 6
2 10 4 10 3 0 8 -4 11 -10z m429 -20 c22 -17 35 -30 30 -30 -11 0 -84 48 -84
55 0 11 17 3 54 -25z m-759 10 c3 -5 2 -10 -4 -10 -5 0 -13 5 -16 10 -3 6 -2
10 4 10 5 0 13 -4 16 -10z m4441 -6 c18 -14 18 -14 -6 -3 -31 14 -36 19 -24
19 6 0 19 -7 30 -16z m459 -11 c-17 -32 -50 -73 -59 -73 -3 0 10 23 30 50 39
55 53 65 29 23z m-830 -3 c-10 -11 -28 -20 -39 -20 -18 0 -17 3 9 20 39 26 53
26 30 0z m215 10 c12 -8 11 -10 -5 -9 -11 1 -31 5 -45 9 -24 8 -24 8 5 9 17 0
37 -4 45 -9z m-4110 -9 c0 -13 -110 -32 -128 -22 -12 7 -5 11 28 15 58 7 94
13 98 15 1 0 2 -3 2 -8z m217 -17 c-7 -7 -37 7 -37 17 0 6 9 5 21 -1 11 -7 19
-14 16 -16z m108 -14 c-16 -17 -25 -35 -22 -44 9 -23 -15 -9 -42 25 -28 36
-20 52 9 18 l21 -24 26 32 c15 18 29 30 32 27 2 -2 -8 -17 -24 -34z m99 24
c26 -9 45 -18 42 -21 -6 -6 -78 16 -90 28 -14 12 -6 11 48 -7z m3988 -24 c16
-15 15 -16 -17 -16 -19 0 -31 4 -28 10 3 5 -3 15 -13 23 -17 13 -17 14 11 7
16 -4 37 -15 47 -24z m174 2 c-4 -3 -14 2 -24 12 -16 18 -16 18 6 6 13 -6 21
-14 18 -18z m-4231 -37 c-9 -20 -19 -35 -21 -32 -3 3 2 22 11 42 23 47 30 39
10 -10z m3786 22 c-7 -7 -25 -6 -53 1 l-43 10 53 -1 c34 0 49 -4 43 -10z
m-4303 -4 c-16 -2 -40 -2 -55 0 -16 2 -3 4 27 4 30 0 43 -2 28 -4z m4472 -3
c0 -5 -9 -10 -19 -10 -11 0 -23 5 -26 10 -4 6 5 10 19 10 14 0 26 -4 26 -10z
m-4205 -26 c19 -14 39 -23 45 -19 22 14 70 23 70 14 0 -5 -8 -9 -18 -9 -10 0
-27 -6 -37 -14 -23 -17 -40 -11 -80 26 -38 35 -25 37 20 2z m4464 -18 c14 -14
20 -26 15 -26 -6 0 -26 16 -45 36 -20 22 -26 32 -14 26 11 -6 31 -22 44 -36z
m-199 30 c0 -2 -7 -9 -15 -16 -13 -11 -14 -10 -9 4 5 14 24 23 24 12z m-269
-21 c-42 -19 -52 -19 -27 0 11 8 29 15 40 15 16 -1 12 -5 -13 -15z m433 -25
c35 -53 33 -62 -4 -15 -27 34 -37 55 -26 55 2 0 15 -18 30 -40z m-3953 -15 c4
-44 -1 -46 -66 -25 -29 9 -29 9 10 7 39 -2 40 -1 43 31 4 43 9 38 13 -13z
m-751 26 c-8 -5 -33 -12 -55 -15 l-40 -5 40 13 c48 17 79 21 55 7z m387 -15
c-3 -8 -1 -17 6 -20 7 -2 4 -5 -5 -5 -18 -1 -24 19 -11 32 11 11 15 8 10 -7z
m4098 -5 c-10 -17 -97 -61 -119 -61 -13 1 3 13 44 34 69 36 85 42 75 27z m449
-42 c19 -18 0 -16 -29 3 -27 18 -28 19 -5 13 14 -4 29 -11 34 -16z m-4550 2
c3 -5 -3 -20 -14 -32 l-19 -24 -1 26 c0 35 20 53 34 30z m196 -8 c0 -10 -10
-29 -21 -43 l-20 -25 16 39 c8 21 15 40 15 42 0 2 2 4 5 4 3 0 5 -8 5 -17z
m-381 -58 c-1 -28 -1 -27 -13 10 -7 22 -10 44 -8 49 8 14 21 -24 21 -59z
m-162 23 c-3 -7 -5 -2 -5 12 0 14 2 19 5 13 2 -7 2 -19 0 -25z m4600 16 c-3
-3 -12 -4 -19 -1 -8 3 -5 6 6 6 11 1 17 -2 13 -5z m-3921 -13 c-3 -5 -15 -7
-26 -4 -28 7 -25 13 6 13 14 0 23 -4 20 -9z m3859 -1 c-27 -12 -43 -12 -25 0
8 5 22 9 30 9 10 0 8 -3 -5 -9z m-119 -28 c-18 -16 -18 -16 -6 6 6 13 14 21
18 18 3 -4 -2 -14 -12 -24z m-4361 -12 c-20 -22 -21 -21 19 -38 16 -7 26 -15
24 -18 -3 -2 -21 2 -40 11 -32 13 -37 13 -42 0 -8 -23 -26 -18 -25 8 0 12 3
16 6 9 3 -9 15 -1 35 23 17 19 33 33 36 30 3 -3 -3 -14 -13 -25z m-55 4 c0 -8
-4 -12 -10 -9 -5 3 -10 10 -10 16 0 5 5 9 10 9 6 0 10 -7 10 -16z m625 -9
c-22 -14 -44 -25 -50 -25 -5 1 8 12 30 25 22 14 45 25 50 25 6 -1 -8 -12 -30
-25z m-276 -65 c8 0 8 -4 -1 -14 -11 -12 -18 -10 -45 17 -18 17 -33 40 -33 51
0 17 6 14 34 -17 18 -20 39 -37 45 -37z m4353 -4 c16 -30 -7 -11 -43 37 l-33
42 33 -30 c18 -16 37 -38 43 -49z m228 59 c-7 -8 -19 -15 -27 -15 -13 0 -13 3
-3 15 7 8 19 15 27 15 13 0 13 -3 3 -15z m-616 -17 c10 -39 7 -44 -9 -14 -17
33 -18 36 -6 36 5 0 11 -10 15 -22z m561 12 c-3 -5 -14 -10 -23 -9 -14 0 -13
2 3 9 27 11 27 11 20 0z m-596 -72 c6 -16 8 -28 6 -28 -4 0 -55 91 -55 99 1
12 40 -45 49 -71z m551 22 c26 -14 30 -19 15 -20 -11 0 -33 7 -49 15 -36 19
-45 12 -20 -17 l18 -23 -23 21 c-44 41 -3 58 59 24z m-4210 5 c0 -8 -63 -45
-75 -45 -5 1 8 12 30 25 43 27 45 28 45 20z m-627 -54 c-15 -28 -29 -48 -31
-46 -7 7 39 95 49 95 6 0 -2 -22 -18 -49z m512 24 c14 -14 25 -28 25 -31 0 -3
10 -20 21 -37 13 -20 2 -12 -30 21 -45 47 -61 72 -46 72 2 0 16 -11 30 -25z
m4015 5 c-14 -4 -34 -8 -45 -9 -16 -1 -17 1 -5 9 8 5 29 9 45 9 29 -1 29 -1 5
-9z m-4074 -41 c-16 -13 -33 -18 -44 -14 -14 5 -12 9 13 20 46 20 61 17 31 -6z
m4274 -24 c-33 -19 -50 -18 -26 0 11 8 27 15 35 15 10 -1 7 -6 -9 -15z m-433
-1 c-3 -3 -12 -4 -19 -1 -8 3 -5 6 6 6 11 1 17 -2 13 -5z m273 -32 c-5 -2 -11
-20 -11 -40 l-1 -37 -8 30 c-4 17 -8 40 -9 53 -1 20 1 21 19 10 11 -7 16 -14
10 -16z m-4361 1 c-1 -10 -5 -31 -9 -48 -7 -27 -8 -25 -9 18 0 26 4 47 9 47 6
0 9 -8 9 -17z m4424 0 c-7 -2 -19 -2 -25 0 -7 3 -2 5 12 5 14 0 19 -2 13 -5z
m-4313 -80 c0 -11 -63 35 -77 56 -12 19 -5 16 31 -13 25 -21 46 -40 46 -43z
m-240 36 c18 -10 -46 0 -75 12 -13 6 -5 6 20 3 22 -4 47 -10 55 -15z m4259
-21 c0 -27 -2 -29 -8 -13 -5 11 -6 26 -4 33 8 21 13 13 12 -20z m130 -24 c-7
-27 -14 -43 -16 -37 -5 14 16 97 23 90 3 -2 -1 -26 -7 -53z m-4529 36 c0 -5
-2 -10 -4 -10 -3 0 -8 5 -11 10 -3 6 -1 10 4 10 6 0 11 -4 11 -10z m530 -15
c-46 -18 -74 -17 -35 0 17 8 39 14 50 14 13 0 8 -5 -15 -14z m-489 -17 c30
-37 22 -55 -10 -22 -16 16 -27 32 -25 36 8 12 15 10 35 -14z m4753 7 c28 3 42
2 31 -1 -48 -12 -49 -14 -29 -30 12 -10 13 -14 4 -11 -37 13 -70 33 -75 47 -5
12 -3 12 6 3 7 -7 32 -10 63 -8z m-397 -57 c-3 -8 -6 -5 -6 6 -1 11 2 17 5 13
3 -3 4 -12 1 -19z m-4061 -9 c-26 -14 -35 -24 -27 -29 14 -8 -8 -20 -36 -20
-13 0 -13 2 -2 17 19 22 71 53 89 53 8 -1 -3 -10 -24 -21z m4190 -12 c4 -4 2
-7 -5 -7 -14 0 -81 27 -81 33 0 7 77 -17 86 -26z m-4306 3 c-8 -5 -28 -9 -45
-9 -30 2 -30 2 5 9 51 11 57 11 40 0z m4780 6 c0 -7 -82 -57 -87 -53 -2 3 15
17 39 31 45 27 48 28 48 22z m-4900 -60 c8 -3 -5 -4 -30 -3 -38 3 -49 -1 -72
-25 -14 -15 -32 -28 -39 -28 -7 0 3 14 21 30 18 17 29 30 24 31 -5 0 0 4 11 8
18 7 40 4 85 -13z m4640 12 c0 -5 6 -8 13 -8 7 0 12 -14 13 -36 1 -33 -1 -35
-13 -18 -7 10 -13 23 -13 30 0 6 -17 18 -37 26 l-38 14 37 0 c21 -1 38 -4 38
-8z m-4435 -62 c6 -5 -5 -1 -24 10 -19 11 -36 26 -39 34 -4 13 19 -3 63 -44z
m4338 -31 c4 -28 3 -35 -4 -23 -5 9 -11 38 -14 65 -6 55 8 24 18 -42z m381 70
c-4 -8 -13 -15 -21 -15 -13 0 -13 3 -3 15 7 8 16 15 21 15 5 0 6 -7 3 -15z
m-544 -47 c0 -4 12 -8 28 -8 22 -1 24 -2 10 -10 -14 -9 -15 -16 -6 -43 6 -17
16 -37 23 -42 7 -6 9 -18 5 -29 -5 -16 -10 -12 -28 25 -12 25 -22 51 -22 59 0
7 -6 21 -14 29 -7 9 -17 27 -20 41 -7 24 -6 24 8 6 9 -11 16 -23 16 -28z
m-4463 -22 c-5 -16 -27 -19 -27 -3 0 7 7 14 15 14 9 0 14 -5 12 -11z m4873 -6
c13 -9 13 -10 0 -9 -8 0 -24 4 -35 9 l-20 9 20 0 c11 0 27 -4 35 -9z m-4880
-59 c0 -18 -5 -28 -15 -28 -16 0 -18 10 -9 44 8 30 24 19 24 -16z m326 17 l19
-23 -25 20 c-14 11 -27 21 -29 22 -2 2 0 3 6 3 5 0 18 -10 29 -22z m4485 -49
l-9 -54 -1 47 c0 25 2 54 6 64 11 30 14 1 4 -57z m-4716 34 c31 -15 37 -15 45
-3 9 13 10 13 10 0 0 -8 3 -33 6 -55 4 -31 3 -36 -5 -23 -7 10 -20 14 -33 12
l-23 -5 23 12 c12 7 22 15 22 18 0 3 -21 18 -48 33 -53 31 -51 37 3 11z m213
-3 c17 -11 32 -22 32 -25 0 -5 -41 15 -70 34 -28 19 5 11 38 -9z m4279 -26
c-3 -3 -12 -4 -19 -1 -8 3 -5 6 6 6 11 1 17 -2 13 -5z m-4338 -75 c5 -16 8
-29 6 -29 -4 0 -45 69 -45 77 0 15 30 -22 39 -48z m4654 30 c20 -20 20 -21 2
-14 -11 5 -35 8 -54 8 -30 -2 -32 -1 -15 12 26 20 41 18 67 -6z m-208 -29
c-18 -29 -126 -52 -140 -30 -4 6 11 10 37 10 24 0 54 7 68 14 31 17 43 19 35
6z m88 -7 c-7 -2 -21 -2 -30 0 -10 3 -4 5 12 5 17 0 24 -2 18 -5z m120 -28
c28 -13 28 -14 7 -10 -23 4 -29 -2 -53 -48 -16 -31 -27 -44 -27 -32 0 11 9 31
20 45 27 34 25 50 -5 50 -14 0 -25 4 -25 9 0 12 43 5 83 -14z m-368 5 c-3 -5
-14 -10 -23 -9 -14 0 -13 2 3 9 27 11 27 11 20 0z m-4294 -58 c-6 -2 -11 -24
-11 -48 0 -24 -4 -44 -9 -44 -4 0 -6 23 -3 50 3 38 1 50 -9 50 -8 0 -25 9 -39
20 -23 18 -21 18 28 -2 29 -13 49 -24 43 -26z m204 37 c5 -7 -10 -9 -44 -6
-69 5 -77 17 -13 17 28 0 54 -5 57 -11z m4275 -34 c-14 -8 -32 -14 -40 -14 -8
0 -1 7 15 14 39 18 57 18 25 0z m295 -53 c-5 -5 -75 45 -75 54 0 2 18 -8 40
-22 22 -15 38 -29 35 -32z m-4675 11 c0 -5 -5 -15 -10 -23 -8 -12 -10 -11 -10
8 0 12 5 22 10 22 6 0 10 -3 10 -7z m4229 -6 c-2 -1 -15 -11 -29 -22 l-25 -20
19 23 c11 12 24 22 29 22 6 0 8 -1 6 -3z m396 -22 c22 -13 36 -24 30 -25 -5 0
-28 11 -50 25 -22 13 -35 24 -30 25 6 0 28 -11 50 -25z m-376 -29 c-36 -33
-37 -34 -84 -23 -34 8 -42 13 -29 17 10 4 30 2 45 -3 22 -9 32 -6 60 16 47 37
51 33 8 -7z m-4136 -22 c23 5 26 3 15 -7 -7 -8 -29 -16 -48 -20 -19 -3 -29 -3
-21 0 11 4 5 14 -20 35 l-34 30 40 -22 c26 -15 48 -20 68 -16z m4347 17 c0
-13 -31 -43 -38 -37 -3 3 3 15 13 26 20 22 25 24 25 11z m-4583 -23 c-3 -8 -6
-5 -6 6 -1 11 2 17 5 13 3 -3 4 -12 1 -19z m4353 -18 c0 -5 -8 -10 -17 -10
-15 0 -16 2 -3 10 19 12 20 12 20 0z m73 3 c-7 -2 -19 -2 -25 0 -7 3 -2 5 12
5 14 0 19 -2 13 -5z m194 1 c-3 -3 -12 -4 -19 -1 -8 3 -5 6 6 6 11 1 17 -2 13
-5z m-62 -34 c-3 -5 -10 -10 -16 -10 -5 0 -9 5 -9 10 0 6 7 10 16 10 8 0 12
-4 9 -10z m38 -46 c-15 -30 -29 -50 -31 -45 -4 13 39 101 50 101 4 0 -4 -25
-19 -56z m-4511 -28 c-6 -19 -6 -38 -2 -43 4 -4 10 -21 13 -38 6 -29 5 -28 -9
5 -9 19 -23 41 -32 48 -11 9 -13 15 -6 20 6 4 17 25 25 46 11 31 15 35 17 18
2 -11 -1 -36 -6 -56z m148 54 c13 -9 13 -10 0 -10 -8 0 -22 5 -30 10 -13 9
-13 10 0 10 8 0 22 -5 30 -10z m4034 -5 c-4 -8 -10 -15 -15 -15 -4 0 -6 7 -3
15 4 8 10 15 15 15 4 0 6 -7 3 -15z m236 5 c0 -5 -5 -10 -11 -10 -5 0 -7 5 -4
10 3 6 8 10 11 10 2 0 4 -4 4 -10z m260 -11 c0 -6 -4 -7 -10 -4 -5 3 -10 11
-10 16 0 6 5 7 10 4 6 -3 10 -11 10 -16z m-4854 -16 c-10 -10 -19 5 -10 18 6
11 8 11 12 0 2 -7 1 -15 -2 -18z m95 -9 c17 -8 28 -18 25 -21 -3 -3 -20 4 -38
16 -39 24 -30 28 13 5z m4459 -10 l25 -14 -30 6 c-16 4 -41 13 -55 20 l-25 14
30 -6 c17 -4 41 -13 55 -20z m-4703 0 c-3 -3 -12 -4 -19 -1 -8 3 -5 6 6 6 11
1 17 -2 13 -5z m124 -17 c-10 -9 -11 -8 -5 6 3 10 9 15 12 12 3 -3 0 -11 -7
-18z m4889 -24 c0 -44 -5 -41 -14 10 -5 27 -4 37 3 32 6 -3 11 -22 11 -42z
m-4780 21 l35 -14 -35 6 c-40 7 -76 24 -50 23 8 0 31 -7 50 -15z m4589 -89
c-1 -35 -2 -37 -9 -15 -4 14 -8 39 -9 55 0 23 2 26 9 15 5 -8 9 -33 9 -55z
m148 43 c-3 -8 -6 -5 -6 6 -1 11 2 17 5 13 3 -3 4 -12 1 -19z m-4968 -20 c7
-19 15 -22 57 -20 53 2 50 -3 -9 -13 -36 -6 -38 -8 -32 -36 10 -45 -3 -34 -15
14 -6 23 -13 50 -16 60 -8 25 5 21 15 -5z m4731 -3 c-7 -8 -18 -15 -24 -15 -6
0 -2 7 8 15 25 19 32 19 16 0z m-150 -10 c0 -6 -14 -26 -30 -45 l-31 -35 16
33 c9 19 15 35 13 36 -2 2 -12 8 -23 14 -17 9 -15 11 17 9 21 -1 38 -7 38 -12z
m-4367 -33 c-2 -10 6 -36 18 -57 13 -21 18 -35 11 -31 -7 4 -19 21 -28 38 -14
28 -17 29 -31 15 -15 -14 -14 -18 2 -44 l17 -28 -25 25 c-14 14 -28 36 -32 50
-5 18 -4 21 4 10 8 -12 14 -10 37 13 32 32 34 33 27 9z m4760 -31 c-6 -3 -15
-31 -21 -61 l-11 -55 3 57 c2 54 1 57 -23 61 -21 3 -20 4 7 6 26 1 35 6 40 24
l7 22 3 -24 c2 -13 0 -26 -5 -30z m-254 -67 c10 11 10 20 1 38 -12 23 -12 23
7 3 11 -11 25 -33 32 -50 l13 -30 -22 20 c-21 19 -21 19 -27 -3 -6 -25 -33
-30 -33 -7 0 8 -9 29 -20 47 -31 51 -24 59 9 10 24 -36 30 -40 40 -28z m-4353
-26 c-22 -31 -21 -36 17 -53 l32 -14 -30 6 c-16 4 -38 7 -47 7 -10 0 -18 2
-18 3 0 11 52 84 57 80 3 -3 -2 -16 -11 -29z m4545 -43 c-2 -11 -6 -14 -9 -7
-2 6 -13 12 -25 12 -20 1 -20 2 -4 11 9 5 17 20 17 32 0 21 1 21 13 -3 7 -14
11 -34 8 -45z m-4813 -25 c0 -32 -1 -33 -8 -10 -4 14 -8 39 -8 55 -1 25 1 27
8 10 5 -11 8 -36 8 -55z m152 56 c0 -2 -19 -16 -42 -31 l-43 -28 29 32 c25 26
56 41 56 27z m4340 -75 c0 -24 -17 1 -24 34 l-6 30 15 -25 c8 -14 14 -32 15
-39z m243 52 c-7 -2 -19 -2 -25 0 -7 3 -2 5 12 5 14 0 19 -2 13 -5z m-150 -84
c22 -6 37 -13 34 -16 -3 -3 -22 0 -41 7 -50 16 -72 6 -90 -43 -15 -39 -16 -40
-11 -8 3 18 5 41 5 50 0 20 48 25 103 10z m-4235 -33 c-21 -18 -38 -38 -38
-45 0 -6 -4 -11 -10 -11 -20 0 -9 19 32 54 23 20 44 36 47 36 3 -1 -11 -16
-31 -34z m4334 12 c-7 -7 -12 -8 -12 -2 0 14 12 26 19 19 2 -3 -1 -11 -7 -17z
m214 13 c-8 -12 -46 -21 -46 -11 0 5 10 11 23 13 12 2 23 5 25 6 2 0 1 -3 -2
-8z m-330 -16 c10 -8 14 -15 8 -15 -5 0 -19 7 -30 15 -10 8 -14 15 -8 15 5 0
19 -7 30 -15z m-4439 -1 c-3 -3 -12 -4 -19 -1 -8 3 -5 6 6 6 11 1 17 -2 13 -5z
m38 -14 c3 -5 1 -10 -4 -10 -6 0 -11 5 -11 10 0 6 2 10 4 10 3 0 8 -4 11 -10z
m-199 -42 c-9 -12 -16 -17 -16 -10 0 18 24 54 28 42 2 -5 -4 -20 -12 -32z m96
2 c-18 -11 -42 -20 -55 -19 -15 0 -9 6 23 19 59 25 73 25 32 0z m331 -7 c-7
-2 -21 -2 -30 0 -10 3 -4 5 12 5 17 0 24 -2 18 -5z m-372 -41 c-5 -10 -17 -24
-25 -32 -13 -10 -16 -10 -16 3 0 10 -15 19 -42 26 -43 10 -42 10 14 6 33 -3
59 -1 63 5 11 18 16 11 6 -8z m208 -9 c-5 -16 -21 -36 -35 -47 -26 -18 -26
-18 -15 2 6 11 15 22 20 24 5 1 11 10 13 18 2 12 17 29 25 30 1 0 -2 -12 -8
-27z m4505 -29 c18 -8 24 -13 14 -14 -10 0 -18 -6 -18 -12 0 -19 -47 34 -55
62 l-7 25 17 -24 c10 -12 32 -29 49 -37z m119 49 c-13 -2 -35 -2 -50 0 -16 2
-5 4 22 4 28 0 40 -2 28 -4z m-4686 -9 c-3 -3 -12 -4 -19 -1 -8 3 -5 6 6 6 11
1 17 -2 13 -5z m4398 -72 c-4 -26 -10 -41 -12 -34 -3 7 -2 34 2 60 4 26 10 41
12 34 3 -7 2 -34 -2 -60z m355 61 c0 -5 -15 -16 -33 -26 l-32 -17 28 25 c30
26 37 30 37 18z m-4640 -13 c13 -8 13 -10 -2 -10 -9 0 -20 5 -23 10 -8 13 5
13 25 0z m57 -16 c-3 -3 -12 -4 -19 -1 -8 3 -5 6 6 6 11 1 17 -2 13 -5z m60
-29 c-15 -14 -33 -25 -40 -25 -6 0 4 11 23 25 43 32 53 32 17 0z m4075 3 c-5
-23 -42 -89 -42 -77 0 13 23 75 33 87 14 17 16 15 9 -10z m-4202 9 c0 -2 -19
-21 -41 -42 -26 -25 -37 -32 -30 -18 13 25 71 74 71 60z m4620 -21 c32 -10 38
-15 20 -15 -14 0 -38 6 -55 14 -40 18 -21 18 35 1z m-120 -6 c13 -7 21 -7 25
0 10 16 21 11 21 -10 0 -11 -6 -20 -14 -20 -8 0 -25 9 -39 20 -27 21 -24 26 7
10z m-4810 -7 c-1 -13 -29 -59 -30 -48 0 21 13 55 21 55 5 0 9 -3 9 -7z m4625
-63 c3 -5 2 -10 -4 -10 -5 0 -13 5 -16 10 -3 6 -2 10 4 10 5 0 13 -4 16 -10z
m-4670 -20 c-5 -15 -2 -20 14 -20 11 0 23 -4 26 -10 10 -16 -31 -12 -45 5 -7
8 -10 22 -6 30 8 22 18 18 11 -5z m271 3 c-3 -4 6 -13 21 -20 27 -12 27 -12
-19 -11 -25 1 -53 -4 -62 -11 -13 -11 -18 -10 -31 3 -9 9 -15 16 -13 16 2 0
21 7 43 15 43 15 73 19 61 8z m4368 -70 c28 -49 30 -70 2 -28 -18 27 -38 75
-32 75 3 0 16 -21 30 -47z m259 30 c-7 -2 -21 -2 -30 0 -10 3 -4 5 12 5 17 0
24 -2 18 -5z m87 -66 c0 -10 -4 -15 -10 -12 -5 3 -10 12 -10 19 0 7 -9 21 -20
31 -11 10 -17 22 -14 27 8 13 54 -43 54 -65z m-225 -3 l30 5 -27 -11 c-17 -7
-28 -20 -28 -32 0 -19 0 -19 -19 0 -11 11 -15 23 -10 30 4 5 6 21 4 35 -4 22
-4 21 7 -4 10 -24 17 -27 43 -23z m-4342 -104 c16 0 17 -2 7 -15 -10 -12 -10
-21 -1 -42 18 -39 7 -38 -15 2 -15 28 -25 35 -49 36 -28 0 -28 1 -7 9 26 11
26 9 8 51 -13 32 -15 33 -67 30 -64 -3 -62 8 2 12 37 3 44 7 42 23 -2 10 12
-9 29 -43 23 -44 38 -63 51 -63z m-343 100 c0 -5 -4 -10 -10 -10 -5 0 -10 5
-10 10 0 6 5 10 10 10 6 0 10 -4 10 -10z m470 -10 c0 -12 -8 -12 -35 0 -18 8
-17 9 8 9 15 1 27 -3 27 -9z m4326 -32 c-16 -38 -51 -59 -81 -48 -18 6 -16 8
10 14 17 4 41 21 55 41 31 41 35 39 16 -7z m-262 -19 c5 -4 0 -6 -11 -3 -11 3
-33 17 -49 31 l-29 25 40 -23 c22 -12 44 -26 49 -30z m-40 -18 c-3 -3 -15 6
-27 18 l-22 24 27 -19 c14 -10 24 -21 22 -23z m397 -44 c-18 -28 -21 -29 -21
-10 0 12 4 24 9 28 5 3 13 20 17 38 l8 32 4 -28 c2 -16 -5 -41 -17 -60z
m-4938 16 c-7 -2 -19 -2 -25 0 -7 3 -2 5 12 5 14 0 19 -2 13 -5z m149 -89 l33
-12 -37 1 c-21 1 -38 5 -38 9 0 4 -8 8 -17 8 -14 0 -15 2 -4 9 10 6 11 13 2
29 -6 11 -11 27 -10 34 0 7 9 -5 19 -27 13 -28 28 -43 52 -51z m77 38 c-1 -33
-2 -34 -9 -12 -12 36 -12 62 0 55 6 -3 10 -23 9 -43z m4111 38 c-20 -13 -33
-13 -25 0 3 6 14 10 23 10 15 0 15 -2 2 -10z m640 -21 c0 -10 -4 -19 -10 -19
-5 0 -10 12 -10 26 0 14 4 23 10 19 6 -3 10 -15 10 -26z m-99 -13 c-18 -19
-30 -39 -27 -45 9 -13 -46 -8 -84 8 -22 9 -20 10 13 5 33 -6 42 -2 77 30 51
46 65 47 21 2z m-283 -13 c35 -26 41 -43 16 -43 -8 0 -30 -11 -47 -24 -31 -24
-87 -50 -87 -41 0 3 19 14 42 26 28 14 37 23 28 29 -8 5 -2 10 19 15 17 3 31
10 31 13 0 4 -14 20 -32 35 -37 32 -20 26 30 -10z m382 -27 c0 -14 -4 -28 -10
-31 -6 -4 -10 7 -10 24 0 17 5 31 10 31 6 0 10 -11 10 -24z m-658 -8 c-7 -7
-12 -8 -12 -2 0 14 12 26 19 19 2 -3 -1 -11 -7 -17z m-3737 -39 c-3 -53 -16
-74 -69 -112 l-28 -20 11 21 c6 12 20 27 31 35 12 8 25 30 30 48 16 56 14 60
-27 55 l-38 -5 40 13 c22 8 43 15 46 15 3 1 5 -22 4 -50z m-210 -3 c50 -21 43
-28 -10 -9 -43 14 -56 23 -35 23 6 0 26 -7 45 -14z m4338 7 c-7 -2 -21 -2 -30
0 -10 3 -4 5 12 5 17 0 24 -2 18 -5z m137 -89 c0 -14 -30 0 -44 21 -27 41 -18
52 14 17 17 -18 30 -35 30 -38z m-4758 34 c15 -7 30 -19 33 -26 3 -8 0 -10 -7
-6 -7 4 -32 7 -57 7 -26 0 -34 1 -18 4 32 5 33 11 10 30 -20 17 -6 13 39 -9z
m365 -45 c-3 -10 -5 -4 -5 12 0 17 2 24 5 18 2 -7 2 -21 0 -30z m208 -24 c-17
-31 -17 -33 6 -50 13 -10 19 -19 13 -19 -7 0 -21 8 -32 18 l-21 17 22 44 c11
25 23 39 25 33 2 -6 -4 -25 -13 -43z m3709 41 c-5 -5 -25 -12 -44 -15 l-35 -5
35 14 c42 18 58 20 44 6z m161 -41 l30 -33 -42 33 c-48 36 -67 59 -37 43 11
-6 33 -25 49 -43z m-4287 -49 c0 -25 -3 -35 -5 -22 -3 17 -11 22 -36 22 -18 0
-39 5 -47 11 -11 8 -4 9 28 6 l42 -5 1 36 c0 30 2 33 9 17 5 -11 8 -40 8 -65z
m4395 -12 l42 -1 -45 -6 c-25 -4 -47 -6 -50 -5 -3 1 -3 26 0 56 l5 53 3 -47 3
-48 42 -2z m355 32 c3 -7 -12 -1 -32 12 -20 13 -36 27 -36 31 0 12 64 -29 68
-43z m-4282 -68 c-13 -13 -16 9 -9 59 l8 54 3 -54 c2 -29 1 -56 -2 -59z m4074
98 c24 -8 24 -8 -5 -8 -16 0 -39 3 -50 8 -18 8 -18 9 5 8 14 0 36 -4 50 -8z
m-597 -21 c26 -13 79 -70 72 -77 -2 -3 -14 7 -26 22 -11 14 -37 35 -57 46 -38
20 -27 28 11 9z m-3717 -24 c-4 -11 2 -15 21 -15 42 0 19 -12 -29 -15 -24 -1
-52 -6 -63 -10 -11 -4 -6 2 11 13 18 11 35 25 38 31 11 17 29 13 22 -4z m-396
-25 c-34 -19 -70 -27 -56 -13 8 8 65 30 81 31 6 1 -6 -7 -25 -18z m4723 -42
c-31 -53 -46 -44 -16 11 16 28 29 44 31 35 2 -8 -5 -29 -15 -46z m-392 42 c21
0 -2 -18 -29 -23 -16 -3 -40 -17 -53 -31 -13 -13 -28 -22 -33 -19 -13 9 76 83
92 78 8 -3 18 -5 23 -5z m479 -47 c-11 -17 -11 -17 -6 0 3 10 6 24 7 30 0 9 2
9 5 0 3 -7 0 -20 -6 -30z m-4860 -32 c-1 -23 -18 -32 -43 -20 -28 13 -39 36
-12 25 54 -22 52 -23 32 7 -9 14 -17 30 -17 34 1 9 40 -36 40 -46z m4210 35
c0 -6 -66 -46 -76 -46 -12 0 8 17 41 34 33 17 35 18 35 12z m-3694 -68 c8 -16
12 -28 10 -28 -8 0 -56 74 -56 85 1 12 26 -20 46 -57z m3924 31 c15 -27 11
-28 -28 -8 -33 17 -31 21 10 28 4 0 12 -8 18 -20z m-4340 -44 c19 -22 20 -26
5 -15 -24 17 -54 52 -55 63 0 9 8 1 50 -48z m4818 -17 c5 -32 6 -58 3 -58 -3
0 -28 7 -56 15 l-50 15 49 -5 48 -5 -6 38 c-4 20 -10 46 -13 57 -4 14 -2 17 5
10 6 -5 15 -36 20 -67z m-4304 23 c-10 -17 -16 -33 -13 -35 3 -3 24 2 48 10
53 18 63 12 22 -12 -34 -20 -37 -26 -18 -46 6 -8 21 -25 32 -38 l20 -25 -30
25 c-16 14 -35 31 -41 39 -10 13 -21 13 -69 -4 -11 -3 -6 2 10 11 17 10 25 19
18 21 -18 6 -16 21 8 60 26 42 38 36 13 -6z m-158 -6 c14 -34 18 -52 9 -44 -9
9 -35 79 -30 79 3 0 13 -16 21 -35z m4240 14 c8 -14 -10 -11 -32 6 -18 13 -18
14 4 8 12 -3 25 -9 28 -14z m-229 -11 c-3 -8 -6 -5 -6 6 -1 11 2 17 5 13 3 -3
4 -12 1 -19z m297 6 c9 -24 7 -54 -4 -54 -5 0 -10 13 -10 30 l0 30 -36 -38
c-32 -34 -34 -34 -17 -7 18 30 42 54 54 55 4 0 10 -7 13 -16z m-4844 -8 c0 -2
-9 -6 -20 -9 -11 -3 -18 -1 -14 4 5 9 34 13 34 5z m4269 1 c-25 -19 -79 -44
-79 -36 0 5 15 16 33 24 29 13 57 20 46 12z m-3846 -47 c-10 -17 -19 -26 -21
-20 -4 10 25 50 35 50 2 0 -4 -14 -14 -30z m4271 -45 c4 -26 3 -35 -3 -25 -5
8 -12 33 -16 55 -4 26 -3 35 3 25 5 -8 12 -33 16 -55z m-385 -2 c-24 -57 -34
-69 -25 -29 6 26 34 76 42 76 2 0 -6 -21 -17 -47z m-3979 27 c-8 -5 -24 -9
-35 -9 -16 1 -16 2 5 9 35 11 48 11 30 0z m3868 -1 c9 -1 -1 -5 -22 -8 -52 -8
-56 -26 -9 -39 l38 -10 -37 -1 c-34 -1 -38 -4 -39 -28 -1 -22 -3 -19 -9 12 -4
22 -6 43 -3 48 2 4 -2 7 -9 7 -7 1 1 7 17 15 17 7 36 11 43 9 8 -2 21 -5 30
-5z m326 -16 c-8 -33 -32 -83 -40 -83 -4 0 -4 7 0 15 3 8 1 15 -5 15 -5 0 0
18 11 40 24 46 44 54 34 13z m326 8 c0 -6 -4 -13 -10 -16 -5 -3 -10 1 -10 9 0
9 5 16 10 16 6 0 10 -4 10 -9z m-4346 -24 c-33 -20 -114 -56 -114 -52 0 12 88
63 109 63 22 0 23 -1 5 -11z m438 -20 c-30 -32 -28 -40 11 -32 21 4 27 3 17
-3 -8 -5 -32 -12 -54 -15 l-38 -6 18 22 c46 54 58 67 62 62 3 -3 -4 -15 -16
-28z m-743 -64 c14 -28 14 -28 -8 -30 -10 -1 -33 14 -52 33 -41 42 -32 44 16
3 39 -35 45 -29 15 16 -11 17 -20 34 -20 39 0 10 32 -30 49 -61z m4181 26 c0
-15 -30 -78 -40 -84 -5 -3 -1 17 8 45 16 46 32 66 32 39z m550 -5 c-25 -8 -49
-12 -55 -10 -12 4 53 24 80 24 11 0 0 -6 -25 -14z m-4572 -19 c-6 -14 -15 -25
-20 -25 -9 0 -4 14 15 38 15 19 18 14 5 -13z m3630 -10 c-2 -19 0 -35 4 -35
12 0 39 -72 34 -87 -10 -25 -25 -13 -36 27 -6 22 -15 40 -21 40 -8 0 -6 21 8
73 8 30 15 18 11 -18z m625 7 c39 -41 33 -49 -10 -13 -25 21 -41 27 -52 22 -9
-5 -29 -11 -46 -14 -26 -5 -25 -4 10 13 54 26 67 25 98 -8z m-3977 3 c-11 -8
-25 -15 -32 -15 -7 0 -21 -2 -31 -5 -10 -3 0 4 22 15 47 23 68 26 41 5z m4345
-38 c-13 -13 -15 1 -4 30 7 17 8 17 11 -1 2 -10 -1 -23 -7 -29z m-3946 23
c-11 -5 -33 -8 -50 -8 -29 1 -29 1 5 8 49 10 69 10 45 0z m4015 -26 c0 -8 -4
-14 -10 -14 -5 0 -10 9 -10 21 0 11 5 17 10 14 6 -3 10 -13 10 -21z m-4905
-35 c20 -23 5 -18 -26 7 -11 10 -24 11 -53 3 -20 -6 -43 -8 -49 -6 -7 2 5 8
26 12 20 4 40 11 43 16 7 12 34 -3 59 -32z m189 27 c-3 -9 5 -20 23 -30 36
-20 23 -20 -24 -1 -30 13 -33 17 -23 30 16 19 31 20 24 1z m89 7 c-13 -2 -33
-2 -45 0 -13 2 -3 4 22 4 25 0 35 -2 23 -4z m3956 -30 c-12 -21 -28 -45 -36
-53 -12 -13 -13 -13 -7 5 8 23 52 85 60 85 3 0 -4 -17 -17 -37z m537 27 c-17
-6 -36 -5 -45 0 -11 7 -3 9 29 9 42 -1 43 -1 16 -9z m-4288 -7 c-15 -2 -42 -2
-60 0 -18 2 -6 4 27 4 33 0 48 -2 33 -4z m4352 -18 c0 -8 -4 -15 -10 -15 -5 0
-7 7 -4 15 4 8 8 15 10 15 2 0 4 -7 4 -15z m-830 -37 c0 -10 -25 2 -55 26 -17
14 -14 14 18 -1 20 -9 37 -21 37 -25z m150 32 c13 -8 13 -10 -2 -10 -9 0 -20
5 -23 10 -8 13 5 13 25 0z m214 -5 c11 -8 18 -17 15 -19 -2 -3 -15 4 -29 14
-14 11 -20 20 -15 19 6 0 19 -6 29 -14z m311 5 c-3 -5 -23 -9 -43 -9 l-37 1
30 8 c44 11 57 11 50 0z m212 -22 c-3 -7 -5 -2 -5 12 0 14 2 19 5 13 2 -7 2
-19 0 -25z m-4232 -13 c-33 -29 -37 -36 -25 -45 22 -14 39 -12 68 8 48 33 58
34 25 3 -29 -27 -31 -31 -15 -40 13 -8 8 -9 -18 -5 -19 4 -39 11 -44 15 -6 5
-18 9 -29 9 -14 0 -17 5 -12 21 9 27 54 68 75 69 8 0 -3 -16 -25 -35z m-175
15 l25 -8 -25 0 c-14 0 -34 3 -45 8 l-20 9 20 -1 c11 0 31 -4 45 -8z m4060
-10 c-45 -25 -61 -25 -31 0 13 11 33 20 45 20 17 -1 14 -4 -14 -20z m-4196
-16 c17 -7 24 -13 16 -13 -8 0 -33 8 -55 19 -43 21 -12 16 39 -6z m4396 16 c8
-5 11 -10 5 -10 -5 0 -17 5 -25 10 -8 5 -10 10 -5 10 6 0 17 -5 25 -10z
m-4580 -30 c0 -5 -6 -10 -14 -10 -8 0 -18 5 -21 10 -3 6 3 10 14 10 12 0 21
-4 21 -10z m797 -35 l38 5 -31 -12 c-18 -8 -29 -18 -26 -26 7 -21 -28 4 -58
42 l-25 31 32 -23 c25 -18 41 -22 70 -17z m3013 4 c-43 -34 -67 -42 -30 -9 19
16 39 30 45 30 5 0 -1 -9 -15 -21z m716 12 c-8 -12 -77 -44 -83 -38 -3 3 12
15 34 26 41 22 57 26 49 12z m-283 -43 c4 -18 9 -44 13 -58 6 -21 4 -23 -7
-12 -7 6 -30 12 -50 12 l-38 0 -3 -47 -3 -48 -5 57 -5 56 46 -5 47 -6 -8 42
c-4 22 -4 41 0 41 4 0 10 -15 13 -32z m362 12 c-3 -5 -18 -10 -33 -9 -24 0
-25 1 -7 9 28 12 47 12 40 0z m-300 -12 c14 -6 25 -15 25 -20 0 -5 -13 -2 -30
7 -45 23 -41 34 5 13z m-4405 -2 c0 -7 -101 -38 -106 -33 -3 3 14 12 38 20 44
16 68 20 68 13z m807 -48 c28 -39 24 -44 -16 -23 -37 18 -40 25 -8 18 18 -5
16 0 -13 26 -29 26 -31 29 -10 21 14 -6 35 -25 47 -42z m3223 42 c14 -4 18 -9
10 -9 -21 -2 29 -30 54 -31 11 0 17 -3 13 -6 -12 -12 -73 6 -107 31 -26 19
-29 25 -14 24 10 -1 30 -5 44 -9z m-279 -17 c-6 -10 -22 -31 -36 -48 -23 -27
-25 -28 -14 -5 11 24 48 70 56 70 2 0 -1 -8 -6 -17z m-3456 -3 c-16 -4 -39 -8
-50 -8 l-20 -1 20 9 c11 5 34 8 50 8 l30 0 -30 -8z m-295 -15 c0 -8 -63 -45
-75 -45 -5 1 8 12 30 25 43 27 45 28 45 20z m198 -11 c-9 -9 -22 -14 -30 -11
-8 3 -4 8 12 15 35 15 37 14 18 -4z m277 -4 c-3 -5 -15 -10 -26 -10 -11 0 -17
5 -14 10 3 6 15 10 26 10 11 0 17 -4 14 -10z m4049 -5 c-4 -8 -10 -15 -15 -15
-4 0 -6 7 -3 15 4 8 10 15 15 15 4 0 6 -7 3 -15z m263 -7 c-3 -8 -6 -5 -6 6
-1 11 2 17 5 13 3 -3 4 -12 1 -19z m-4377 3 c0 -5 -15 -30 -34 -54 -30 -40
-32 -44 -13 -39 12 3 28 10 36 16 11 8 13 8 7 -2 -8 -14 -79 -52 -98 -52 -6 0
-3 7 8 15 10 8 15 15 9 15 -5 0 9 19 30 41 28 29 36 43 26 46 -11 5 -11 7 0
14 18 11 29 11 29 0z m-580 -31 c-6 -12 -14 -19 -17 -17 -2 3 1 15 7 27 6 12
14 19 17 17 2 -3 -1 -15 -7 -27z m328 -31 l-4 -44 -8 42 c-6 32 -12 40 -25 36
-11 -4 -10 -1 4 10 27 21 37 8 33 -44z m772 -1 c0 -23 -3 -39 -6 -36 -7 8 -13
61 -7 71 9 15 13 6 13 -35z m186 20 c27 -12 44 -23 37 -25 -11 -4 -93 33 -93
42 0 8 4 6 56 -17z m-498 0 c54 16 64 14 22 -4 -47 -20 -47 -20 -19 -51 l24
-27 -37 27 c-43 32 -48 33 -48 10 -1 -10 -7 -29 -16 -43 -15 -25 -15 -25 -8
10 3 19 10 39 15 45 5 5 9 18 9 30 0 16 2 17 9 6 8 -12 16 -13 49 -3z m3898
-53 c-11 -29 -15 -34 -15 -17 -1 18 -7 22 -32 22 -17 0 -28 4 -24 10 3 5 19 7
34 4 25 -5 29 -2 36 23 5 16 10 22 12 13 2 -9 -3 -33 -11 -55z m302 26 l27 -9
-32 -1 c-17 -1 -34 -7 -36 -13 -3 -8 -6 -6 -6 5 -1 9 -5 17 -11 17 -5 0 -2 8
8 18 11 12 18 14 20 5 2 -6 15 -16 30 -22z m-4894 19 c-6 -6 -28 -13 -50 -15
l-39 -5 40 14 c49 18 62 19 49 6z m1102 -36 c-4 -20 -10 -34 -13 -30 -3 3 -2
21 1 42 4 20 10 34 13 30 3 -3 2 -21 -1 -42z m2719 36 c-3 -5 -11 -10 -16 -10
-6 0 -7 5 -4 10 3 6 11 10 16 10 6 0 7 -4 4 -10z m305 0 c-8 -5 -22 -10 -30
-10 -13 0 -13 1 0 10 8 5 22 10 30 10 13 0 13 -1 0 -10z m-390 -10 c10 -7 -1
-8 -35 -4 -27 4 -52 8 -54 10 -10 9 75 3 89 -6z m50 6 c0 -3 -4 -8 -10 -11 -5
-3 -10 -1 -10 4 0 6 5 11 10 11 6 0 10 -2 10 -4z m909 -45 c-7 -23 -18 -46
-26 -53 -10 -8 -8 5 6 41 12 28 21 55 21 58 0 3 3 4 6 1 3 -3 0 -25 -7 -47z
m-824 30 c-11 -4 -33 -11 -50 -15 l-30 -6 25 15 c14 8 36 14 50 14 23 0 23 -1
5 -8z m205 -5 c0 -15 -18 -31 -26 -23 -7 7 7 37 17 37 5 0 9 -6 9 -14z m-3808
-31 c4 -22 14 -22 68 -6 32 9 33 9 16 -4 -11 -8 -25 -15 -32 -15 -6 0 -23 -9
-38 -21 -25 -20 -26 -20 -26 -1 0 11 -3 35 -6 53 -5 23 -3 31 4 24 5 -5 12
-19 14 -30z m643 20 c-39 -12 -40 -13 -38 -56 l2 -44 -11 40 c-6 22 -16 43
-21 47 -12 8 47 26 83 26 19 0 15 -3 -15 -13z m3265 -31 l25 -15 -25 7 c-14 3
-29 10 -34 15 -16 14 6 10 34 -7z m290 11 c0 -9 -79 -45 -100 -45 -11 0 -20 7
-20 15 0 11 11 15 38 16 20 0 46 4 57 9 26 11 25 11 25 5z m-4297 -12 c-13 -2
-33 -2 -45 0 -13 2 -3 4 22 4 25 0 35 -2 23 -4z m1297 -3 c0 -13 -11 -13 -30
0 -12 8 -11 10 8 10 12 0 22 -4 22 -10z m2570 1 c0 -5 -7 -14 -15 -21 -13 -11
-14 -10 -9 4 6 14 3 15 -37 1 -50 -18 -63 -13 -22 9 31 17 83 21 83 7z m290
-11 c0 -14 -7 -20 -22 -20 -20 0 -21 1 -3 20 10 11 20 20 22 20 1 0 3 -9 3
-20z m509 -36 c-13 -14 -33 -30 -44 -36 -16 -9 -18 -8 -7 3 6 7 12 21 12 31 0
10 5 15 13 12 8 -3 20 2 27 11 7 8 15 13 18 10 3 -3 -5 -17 -19 -31z m-1291
19 c-10 -2 -28 -2 -40 0 -13 2 -5 4 17 4 22 1 32 -1 23 -4z m42 -19 c0 -14 -4
-23 -10 -19 -5 3 -10 15 -10 26 0 10 5 19 10 19 6 0 10 -12 10 -26z m-339 -21
c-12 -20 -14 -14 -5 12 4 9 9 14 11 11 3 -2 0 -13 -6 -23z m506 -48 c-13 -19
-26 -32 -30 -29 -3 3 -17 -2 -31 -12 -46 -30 -38 -9 9 24 25 18 48 39 50 47
15 46 18 51 22 28 3 -12 -6 -38 -20 -58z m867 60 c-10 -8 -23 -14 -29 -14 -5
0 -1 6 9 14 11 8 24 15 30 15 5 0 1 -7 -10 -15z m-4084 -10 c-11 -13 -10 -18
6 -31 18 -15 18 -15 -7 -10 -26 6 -56 -14 -42 -27 14 -14 -15 -6 -63 17 -57
29 -55 32 7 11 30 -11 45 -12 47 -5 4 11 53 60 61 60 2 0 -2 -7 -9 -15z m430
-4 c-11 -21 -30 -37 -30 -25 0 8 30 44 37 44 2 0 -1 -9 -7 -19z m-963 -3 c-2
-7 12 -30 31 -50 44 -46 36 -50 -14 -6 l-36 32 -24 -29 c-13 -17 -24 -25 -24
-18 0 12 57 83 67 83 3 0 3 -6 0 -12z m1110 -26 c-32 -33 -33 -39 -9 -45 9 -3
-1 -5 -23 -6 -22 0 -47 4 -55 9 -12 8 -10 10 11 10 15 0 38 13 59 35 18 19 36
32 39 30 2 -3 -8 -18 -22 -33z m180 1 c-3 -10 -5 -4 -5 12 0 17 2 24 5 18 2
-7 2 -21 0 -30z m254 1 c-12 -19 -19 -39 -16 -44 3 -5 -7 -7 -22 -5 -16 2 -46
4 -68 5 -32 1 -36 3 -20 10 11 5 35 9 53 9 24 1 41 9 60 31 35 40 39 38 13 -6z
m1804 26 c-7 -11 -85 -34 -92 -27 -2 3 15 12 39 20 52 19 61 20 53 7z m201 1
c-9 -15 -73 -41 -98 -41 -16 1 -6 8 32 25 61 26 74 29 66 16z m379 -1 c15 -7
10 -9 -23 -9 -26 -1 -41 3 -37 9 7 12 32 12 60 0z m-2554 -28 c-12 -22 -51
-58 -51 -47 0 9 50 65 57 65 2 0 -1 -8 -6 -18z m374 -8 l30 -25 -32 15 c-17 9
-35 20 -38 26 -11 18 10 10 40 -16z m2527 6 c20 -9 19 -10 -11 -5 -26 4 -32 2
-27 -10 3 -8 1 -15 -5 -15 -16 0 -78 31 -86 43 -8 12 94 2 129 -13z m542 -9
c-14 -12 -105 -44 -110 -38 -8 8 57 37 83 37 15 0 23 6 24 18 0 11 2 13 6 4 3
-8 1 -17 -3 -21z m-4527 -63 c-2 -18 -4 -6 -4 27 0 33 2 48 4 33 2 -15 2 -42
0 -60z m377 67 c11 -8 15 -15 10 -15 -6 0 -19 7 -30 15 -10 8 -14 14 -9 14 6
0 19 -6 29 -14z m3143 -2 c7 -10 18 -27 25 -38 11 -20 11 -20 -11 0 -25 22
-46 55 -35 55 4 0 13 -8 21 -17z m364 -39 c13 -16 12 -16 -6 -7 -11 6 -31 24
-45 39 l-25 28 31 -22 c17 -11 37 -29 45 -38z m-854 -31 c-2 -16 -4 -3 -4 27
0 30 2 43 4 28 2 -16 2 -40 0 -55z m1208 30 c19 -45 19 -63 1 -38 -12 16 -16
17 -30 6 -9 -7 -16 -25 -17 -40 0 -14 -4 -35 -9 -46 -8 -18 -9 -17 -9 8 -1 15
-6 27 -13 27 -6 0 -4 8 6 19 17 18 17 19 -1 23 -14 3 -11 8 15 21 27 15 31 21
26 44 -10 38 13 21 31 -24z m-3773 23 c-24 -6 -40 -14 -36 -19 4 -4 2 -7 -4
-7 -6 0 -14 5 -17 10 -12 20 7 30 53 29 l47 -1 -43 -12z m178 10 c0 -2 -7 -7
-16 -10 -8 -3 -12 -2 -9 4 6 10 25 14 25 6z m273 -11 c-3 -9 -8 -14 -10 -11
-3 3 -2 9 2 15 9 16 15 13 8 -4z m1727 11 c0 -3 -4 -8 -10 -11 -5 -3 -10 -1
-10 4 0 6 5 11 10 11 6 0 10 -2 10 -4z m-1966 -41 c-13 -20 -13 -25 -3 -25 23
0 -12 -20 -35 -20 -17 0 -15 5 14 35 40 41 46 44 24 10z m2139 15 c-12 -5 -34
-5 -50 0 -24 7 -21 8 22 9 38 0 45 -2 28 -9z m107 -16 c0 -8 -4 -12 -10 -9 -5
3 -10 10 -10 16 0 5 5 9 10 9 6 0 10 -7 10 -16z m-2549 -11 c-5 -10 -22 -29
-37 -43 -26 -23 -25 -22 5 18 34 43 49 55 32 25z m529 14 c0 -2 -10 -12 -21
-23 -22 -19 -22 -19 -8 4 12 19 29 30 29 19z m2806 -68 l-24 -54 -1 47 c-1 26
4 50 9 53 6 3 10 0 10 -7 0 -8 5 -6 11 5 22 38 19 7 -5 -44z m-2220 42 c-3 -4
-25 -11 -48 -14 -24 -2 -52 -8 -63 -12 l-20 -7 20 15 c31 23 123 38 111 18z
m2354 -33 c0 -49 -5 -47 -13 5 -3 20 -2 37 4 37 5 0 9 -19 9 -42z m173 -2 c-5
-37 -2 -45 13 -50 11 -4 33 -18 49 -33 l30 -26 -48 27 c-26 15 -52 24 -57 21
-6 -4 -8 8 -4 32 11 77 25 101 17 29z m-4183 -8 c11 -24 19 -50 19 -58 0 -12
-49 84 -49 96 0 15 14 -3 30 -38z m4300 22 c-8 -6 -22 -10 -30 -9 -9 0 -5 6
10 14 27 14 44 10 20 -5z m-3539 -78 c17 -7 9 -20 -10 -15 -11 3 -23 20 -30
42 -16 56 -14 61 10 16 12 -22 25 -41 30 -43z m1437 68 c-19 -12 -116 -26
-107 -16 6 6 79 23 109 25 12 0 12 -2 -2 -9z m1267 -11 c15 -15 -17 -10 -45 7
l-25 15 30 -6 c17 -4 34 -11 40 -16z m80 11 c8 -13 -5 -13 -25 0 -13 8 -13 10
2 10 9 0 20 -4 23 -10z m-3660 -9 c-11 -4 -36 -11 -55 -14 l-35 -6 30 14 c17
8 41 14 55 14 22 0 23 -1 5 -8z m2070 -22 c1 -8 8 -25 17 -39 18 -28 32 -70
24 -70 -3 0 -12 15 -19 33 -22 51 -42 63 -73 42 -23 -15 -27 -15 -49 -1 -29
19 -35 20 -35 4 0 -7 -14 -29 -31 -48 -23 -27 -27 -29 -18 -10 7 14 21 37 32
52 11 14 16 31 13 37 -12 18 6 12 29 -9 18 -17 27 -19 48 -11 29 11 33 21 15
39 -8 8 -4 9 18 3 16 -4 29 -14 29 -22z m-1660 -9 c8 -16 15 -37 14 -47 0 -14
-2 -13 -9 5 -8 18 -13 20 -27 13 -10 -6 -34 -17 -53 -26 l-35 -16 24 21 c27
23 27 22 -16 44 -18 9 -33 18 -33 21 0 7 60 -16 66 -26 3 -5 17 -9 31 -9 22 0
24 3 19 25 -9 34 0 32 19 -5z m2025 16 c-14 -7 -36 -16 -50 -20 -14 -3 -7 3
15 14 45 22 74 27 35 6z m515 -11 c17 -14 25 -25 18 -25 -7 0 -25 11 -40 25
-36 32 -17 32 22 0z m506 3 c11 -13 24 -32 31 -43 9 -16 5 -15 -16 5 l-28 25
-19 -24 c-11 -13 -18 -30 -15 -38 3 -7 -1 -13 -9 -13 -20 0 -19 9 5 48 11 18
20 39 20 47 0 21 9 19 31 -7z m256 16 c-3 -3 -12 -4 -19 -1 -8 3 -5 6 6 6 11
1 17 -2 13 -5z m1070 -20 c-27 -14 -51 -23 -54 -20 -7 6 68 45 87 45 8 0 -7
-11 -33 -25z m-3477 -5 c0 -5 -4 -9 -10 -9 -5 0 -10 7 -10 16 0 8 5 12 10 9 6
-3 10 -10 10 -16z m579 4 c-44 -58 -59 -73 -59 -62 0 7 14 28 32 46 34 36 49
44 27 16z m1308 -20 c-3 -10 -5 -4 -5 12 0 17 2 24 5 18 2 -7 2 -21 0 -30z
m971 -38 c0 -38 -1 -39 -8 -10 -4 17 -8 44 -8 60 -1 25 1 27 8 10 5 -11 8 -38
8 -60z m-3044 46 c19 -21 85 -38 95 -24 3 4 15 15 25 23 18 14 19 14 9 -5 -6
-11 -24 -31 -39 -45 -22 -20 -26 -21 -20 -6 5 15 2 17 -14 13 -12 -3 -33 1
-48 9 -15 8 -23 14 -18 14 5 0 1 9 -9 20 -10 11 -14 20 -8 20 5 0 18 -9 27
-19z m1017 -1 l24 -21 -32 16 c-32 15 -42 25 -24 25 5 0 19 -9 32 -20z m191 6
c-4 -6 -12 -27 -18 -46 -12 -35 -12 -35 -13 -6 -1 27 -3 28 -33 22 -37 -7 -33
-1 14 23 38 19 60 22 50 7z m808 -12 c0 -8 4 -14 9 -14 5 0 12 -10 15 -22 5
-20 8 -21 19 -8 8 11 22 14 47 9 l35 -6 -32 -8 c-18 -4 -33 -11 -33 -16 0 -21
-31 -6 -45 21 -15 28 -19 30 -78 31 -53 1 -58 2 -32 10 17 5 43 6 59 3 24 -5
28 -4 23 10 -4 10 -3 15 3 11 6 -3 10 -13 10 -21z m-493 -7 c4 -6 -4 -7 -23
-3 -41 10 -51 24 -14 18 17 -2 33 -9 37 -15z m-1146 -1 c-24 -13 -23 -14 28
-31 54 -17 56 -27 11 -40 -22 -7 -23 -6 -12 7 11 13 9 17 -11 22 -13 3 -33 14
-46 25 -20 18 -21 20 -4 24 10 3 27 5 38 5 18 1 17 0 -4 -12z m-1596 -5 c-6
-5 -19 -11 -29 -13 -17 -3 -17 -6 9 -36 38 -45 25 -52 -13 -7 -17 19 -37 35
-44 35 -20 0 5 18 32 23 45 8 54 7 45 -2z m1399 -6 c-4 -8 -8 -15 -10 -15 -2
0 -4 7 -4 15 0 8 4 15 10 15 5 0 7 -7 4 -15z m1211 -31 c-4 -26 -9 -34 -15
-24 -7 11 -16 12 -46 2 -55 -17 -52 -8 6 17 31 13 50 28 50 38 0 9 3 14 6 10
4 -3 3 -23 -1 -43z m172 40 c-3 -3 -12 -4 -19 -1 -8 3 -5 6 6 6 11 1 17 -2 13
-5z m1238 -18 c-9 -13 -23 -27 -31 -30 -8 -3 -14 -12 -14 -21 0 -19 -24 -19
-40 0 -11 13 -10 14 2 10 9 -4 31 9 54 29 46 42 49 43 29 12z m-3085 1 c0 -8
-16 -31 -35 -53 -35 -38 -33 -25 2 25 l18 24 -38 -6 c-46 -7 -48 -1 -4 12 46
13 57 13 57 -2z m2822 -21 c-3 -6 -9 -26 -13 -46 l-7 -35 -1 34 c-1 30 -3 33
-23 27 -51 -15 -83 -18 -68 -7 8 5 31 13 52 16 25 5 39 13 44 27 5 16 8 17 14
7 5 -7 6 -18 2 -23z m-3075 -23 c-3 -10 -5 -2 -5 17 0 19 2 27 5 18 2 -10 2
-26 0 -35z m3483 41 c0 -7 -66 -34 -82 -33 -7 0 5 9 27 19 43 20 55 23 55 14z
m819 -21 c25 -14 25 -15 -18 -10 -24 3 -50 12 -58 20 -12 12 -10 13 18 9 18
-3 44 -11 58 -19z m-4779 -3 c21 -7 19 -8 -17 -9 -40 -1 -43 -3 -44 -28 0 -16
-4 -37 -9 -48 -6 -14 -8 -2 -7 37 2 55 3 58 27 57 14 -1 36 -5 50 -9z m865
-39 c5 -21 4 -31 -3 -27 -5 3 -12 22 -14 41 -5 43 7 33 17 -14z m480 34 l30
-14 -35 6 c-19 4 -46 10 -60 14 -24 7 -24 7 5 8 17 0 44 -6 60 -14z m2305 5
c12 -8 12 -10 -5 -9 -11 0 -29 4 -40 9 -18 8 -18 9 5 9 14 0 32 -4 40 -9z
m1005 0 c-4 -6 -23 -10 -43 -10 l-37 -1 24 -19 c13 -11 20 -20 17 -20 -8 0
-106 49 -106 53 0 1 34 3 75 4 46 1 73 -2 70 -7z m-4241 -22 c-3 -13 -16 -36
-26 -51 -11 -16 -19 -29 -17 -31 2 -2 13 -8 24 -14 19 -11 19 -11 -3 -12 -35
0 -37 24 -5 79 31 56 38 63 27 29z m165 -22 c14 -14 20 -26 15 -26 -6 0 -26
16 -45 36 -20 22 -26 32 -14 26 11 -6 31 -22 44 -36z m2243 35 c13 -5 37 -13
53 -16 25 -6 27 -9 12 -14 -24 -9 -88 -1 -82 9 3 5 -3 13 -12 19 -23 13 -2 14
29 2z m133 -1 l20 -9 -20 0 c-11 0 -27 4 -35 9 -13 9 -13 10 0 9 8 0 24 -4 35
-9z m310 0 c-3 -5 -15 -10 -26 -10 -10 0 -19 5 -19 10 0 6 12 10 26 10 14 0
23 -4 19 -10z m127 -8 c-4 -10 -20 -34 -35 -53 l-28 -34 16 35 c25 50 64 93
47 52z m428 1 c0 -5 -12 -26 -26 -48 -14 -22 -23 -31 -19 -20 4 11 7 24 8 29
2 10 29 46 34 46 2 0 3 -3 3 -7z m890 0 c-1 -10 -50 -46 -50 -37 0 11 32 44
42 44 4 0 8 -3 8 -7z m-4602 -38 c-3 -14 -1 -25 5 -25 6 0 3 -6 -8 -14 -12 -9
-16 -20 -12 -36 6 -25 -12 -68 -37 -89 -21 -18 -20 -8 4 31 22 37 26 78 8 96
-9 9 -9 12 0 12 7 0 17 11 22 25 5 14 12 25 16 25 3 0 4 -11 2 -25z m2382 16
c0 -5 8 -12 18 -14 9 -3 4 -5 -13 -6 -16 -1 -48 -4 -70 -7 l-40 -5 40 20 c45
22 65 26 65 12z m-220 -22 c25 -14 -41 -9 -80 7 l-35 14 50 -6 c28 -3 57 -10
65 -15z m1975 11 c16 -7 13 -9 -17 -9 -21 -1 -38 4 -38 9 0 12 27 12 55 0z
m-2709 -67 l-16 -28 6 30 c3 17 9 39 12 50 6 19 6 19 10 -2 2 -12 -4 -34 -12
-50z m185 6 c22 -17 23 -18 3 -13 -12 3 -37 19 -55 36 l-34 29 31 -16 c17 -10
41 -25 55 -36z m1925 0 c17 -7 16 -8 -3 -8 -17 -1 -23 -7 -24 -23 -1 -23 -1
-23 -8 1 -3 12 -20 29 -36 37 l-30 14 28 -5 c23 -5 27 -2 27 17 l1 23 13 -24
c8 -14 22 -28 32 -32z m441 35 c-3 -3 -12 -4 -19 -1 -8 3 -5 6 6 6 11 1 17 -2
13 -5z m-3921 -13 c-3 -5 9 -18 27 -30 41 -26 23 -28 -20 -1 -35 21 -43 40
-17 40 8 0 13 -4 10 -9z m1939 0 c-15 -14 -65 -25 -65 -14 0 17 12 23 44 23
18 0 26 -4 21 -9z m495 -36 c-6 -30 -8 -33 -9 -13 -1 25 8 62 14 56 2 -2 -1
-21 -5 -43z m287 27 c-21 -23 -21 -31 1 -49 15 -12 14 -13 -13 -7 -16 4 -39
13 -50 20 -19 13 -18 14 8 14 16 0 32 8 39 20 7 11 17 20 22 20 5 0 2 -8 -7
-18z m1104 -24 c27 -22 29 -26 11 -22 -12 4 -25 11 -28 16 -3 5 -12 4 -21 -3
-12 -11 -14 -10 -11 3 1 10 -6 24 -17 32 -19 15 -19 15 6 8 14 -4 41 -19 60
-34z m44 32 c-28 -12 -65 -12 -65 0 0 6 19 10 43 9 32 0 37 -2 22 -9z m205
-22 c0 -6 -7 -5 -15 2 -8 7 -15 17 -15 22 0 6 7 5 15 -2 8 -7 15 -17 15 -22z
m225 -12 c-9 -20 -13 -41 -10 -46 10 -16 -23 -12 -42 5 -10 8 -27 22 -38 30
-18 15 -17 15 12 0 44 -21 46 -20 67 20 24 45 31 39 11 -9z m-4125 24 c12 -8
11 -10 -7 -10 -13 0 -23 5 -23 10 0 13 11 13 30 0z m709 -51 c14 0 35 -4 46
-9 17 -7 16 -9 -9 -9 -16 -1 -46 4 -68 11 -32 9 -44 9 -74 -5 -41 -20 -48 -21
-39 -6 4 5 18 15 32 20 25 9 25 10 7 31 -17 20 -14 19 30 -5 27 -15 60 -27 75
-28z m780 13 c-27 -19 -32 -11 -12 17 12 17 18 20 24 10 5 -8 0 -18 -12 -27z
m205 22 c9 -24 7 -28 -9 -14 -8 6 -19 9 -25 5 -5 -3 -10 -2 -10 4 0 8 15 18
31 20 4 1 10 -6 13 -15z m516 -38 c0 -39 -6 -31 -14 19 -5 29 -4 36 3 25 6 -8
11 -28 11 -44z m745 45 c-3 -5 -25 -17 -50 -26 -42 -17 -47 -17 -81 0 -46 21
-41 26 17 14 35 -8 53 -6 79 5 42 18 43 18 35 7z m-1665 -27 c25 -14 34 -22
20 -18 -27 7 -91 44 -75 43 6 0 30 -11 55 -25z m-449 -32 c-6 -2 -11 -8 -11
-13 0 -6 5 -7 12 -3 8 5 9 1 4 -12 -8 -21 -49 -84 -53 -80 -1 1 4 28 11 59 12
51 12 59 -3 68 -14 9 -14 10 2 5 11 -4 20 1 24 11 5 13 8 12 15 -8 6 -15 5
-25 -1 -27z m1522 30 c3 16 5 13 6 -12 0 -20 6 -41 13 -48 9 -9 8 -12 -5 -12
-9 0 -17 5 -17 11 0 6 -12 27 -27 47 l-27 37 26 -23 26 -24 5 24z m1577 -3 c0
-4 -7 -6 -15 -3 -8 4 -15 10 -15 15 0 4 7 6 15 3 8 -4 15 -10 15 -15z m-3977
-4 c-3 -9 -8 -14 -10 -11 -3 3 -2 9 2 15 9 16 15 13 8 -4z m199 -40 c-2 -19
-9 -38 -15 -42 -6 -4 -8 0 -4 11 5 12 0 19 -15 25 -18 7 -19 9 -5 14 10 4 17
16 17 28 0 16 3 19 13 11 8 -7 11 -25 9 -47z m2508 50 c0 -3 -11 -23 -25 -45
-24 -38 -45 -52 -45 -30 0 6 5 10 10 10 6 0 10 6 10 13 0 17 29 57 41 57 5 0
9 -2 9 -5z m1677 -29 c13 -11 23 -24 23 -30 0 -6 -5 -5 -12 2 -19 19 -28 14
-24 -15 5 -41 17 -73 25 -68 4 2 5 -10 2 -28 l-5 -32 -10 27 c-10 29 -57 44
-99 33 -20 -5 -19 -3 6 18 l28 23 -28 15 c-30 15 -71 49 -60 49 4 0 29 -14 57
-31 27 -17 54 -28 60 -24 16 10 12 56 -7 77 -16 18 -16 18 2 12 11 -4 29 -17
42 -28z m-3995 12 c-9 -9 -6 -15 16 -24 25 -12 23 -12 -30 -13 -31 -1 -60 4
-63 9 -3 6 2 10 12 10 11 0 28 7 39 15 23 17 43 20 26 3z m3454 2 l27 -11 -38
-39 c-21 -22 -41 -37 -44 -34 -3 3 9 19 27 36 19 16 32 31 30 32 -1 2 -21 8
-43 14 -33 8 -35 10 -13 11 15 1 39 -4 54 -9z m-4289 -26 c25 -14 42 -28 40
-31 -5 -5 -97 45 -97 53 0 9 15 3 57 -22z m75 0 c21 -15 36 -29 34 -31 -4 -5
-86 46 -86 53 0 9 17 2 52 -22z m1508 8 c-19 -9 -37 -18 -39 -19 -2 -2 3 -11
11 -20 9 -10 21 -29 27 -43 l12 -25 -21 25 c-11 14 -29 36 -41 49 -11 13 -18
25 -17 26 4 3 81 23 93 23 6 1 -6 -7 -25 -16z m660 8 c13 -8 13 -10 -2 -10 -9
0 -20 5 -23 10 -8 13 5 13 25 0z m-2294 -42 c4 -6 1 -8 -7 -5 -8 3 -31 11 -51
18 -21 7 -38 16 -38 20 0 10 88 -20 96 -33z m2674 27 c-7 -9 -15 -13 -17 -11
-7 7 7 26 19 26 6 0 6 -6 -2 -15z m-634 -41 c-4 -20 -10 -34 -12 -31 -3 3 -2
21 2 41 3 21 9 35 11 32 3 -3 2 -21 -1 -42z m1310 21 c-3 -9 -10 -13 -16 -10
-6 4 -27 -4 -48 -16 -29 -18 -34 -19 -23 -5 15 18 83 57 90 50 2 -2 1 -10 -3
-19z m329 -20 l30 -26 -33 18 c-18 10 -41 27 -50 37 -16 18 -16 18 3 8 11 -6
34 -23 50 -37z m349 19 c-6 -21 -4 -25 7 -19 8 4 0 -7 -18 -26 -18 -18 -35
-30 -39 -26 -5 5 45 97 54 97 1 0 -1 -12 -4 -26z m-3484 6 c-8 -5 -26 -10 -39
-10 -14 0 -32 -7 -42 -16 -16 -14 -17 -14 -15 1 3 24 25 35 71 35 29 0 36 -3
25 -10z m1550 -29 c-11 -22 -24 -43 -30 -46 -6 -4 -1 11 11 32 29 53 30 53 35
53 2 0 -5 -18 -16 -39z m2425 30 c3 -5 1 -12 -5 -16 -5 -3 -10 1 -10 9 0 18 6
21 15 7z m-3545 -14 c0 -2 -14 -16 -32 -33 l-31 -29 22 33 c18 26 41 42 41 29z
m1740 -7 c8 -5 11 -10 5 -10 -5 0 -17 5 -25 10 -8 5 -10 10 -5 10 6 0 17 -5
25 -10z m1135 -10 c-10 -11 -23 -20 -28 -20 -6 0 -2 9 8 20 10 11 23 20 28 20
6 0 2 -9 -8 -20z m310 -17 c27 -40 34 -71 9 -38 -20 26 -46 75 -40 75 3 0 17
-17 31 -37z m310 12 c50 -24 50 -24 42 -31 -6 -7 -97 42 -97 52 0 3 3 4 8 2 4
-2 25 -12 47 -23z m120 -17 c38 -40 39 -40 7 -19 -26 19 -61 61 -49 61 1 0 21
-19 42 -42z m-2720 13 c-11 -5 -51 -10 -90 -13 -63 -4 -67 -3 -40 8 17 7 57
13 90 13 40 0 53 -3 40 -8z m576 -5 c-9 -10 -4 -18 24 -37 37 -25 42 -34 25
-44 -6 -4 -8 -15 -5 -26 5 -13 2 -17 -7 -14 -8 3 -20 -5 -28 -20 -7 -14 -15
-23 -18 -21 -2 3 4 19 14 36 16 27 17 33 5 53 -13 20 -13 21 2 9 9 -8 22 -12
29 -10 8 3 -1 12 -19 21 -17 9 -35 22 -38 27 -6 10 11 40 22 40 3 0 0 -6 -6
-14z m329 4 c0 -5 -2 -10 -4 -10 -3 0 -8 5 -11 10 -3 6 -1 10 4 10 6 0 11 -4
11 -10z m340 -15 c-7 -8 -17 -15 -23 -15 -5 0 -2 9 8 20 21 23 35 19 15 -5z
m-750 6 c0 -5 -10 -11 -22 -14 -22 -6 -22 -6 -4 8 23 17 26 18 26 6z m956 -33
c-19 -27 -21 -19 -4 18 7 14 14 21 16 15 2 -6 -4 -21 -12 -33z m167 26 c26 -9
47 -20 47 -25 0 -4 -19 0 -42 10 -24 10 -50 20 -58 24 -35 13 10 6 53 -9z
m-475 -24 c23 -17 42 -33 42 -36 0 -6 -47 21 -81 47 -40 31 -5 21 39 -11z
m-351 9 c25 11 25 11 12 -6 -20 -25 -52 -52 -63 -53 -6 0 -5 5 2 12 17 17 15
28 -7 28 -25 0 -51 10 -51 20 0 4 18 3 41 -2 29 -8 47 -7 66 1z m1138 1 c-4
-6 11 -10 37 -10 55 -1 32 -15 -39 -24 -60 -8 -79 12 -29 30 17 7 32 12 34 13
2 0 0 -3 -3 -9z m-3787 -43 c28 -42 28 -53 0 -60 -29 -8 -36 -1 -9 8 22 7 27
20 11 30 -17 10 -52 65 -38 60 7 -3 23 -20 36 -38z m406 33 c-11 -11 -123 -27
-113 -17 3 4 30 11 60 16 30 5 56 9 59 10 2 0 -1 -4 -6 -9z m763 3 c-4 -4 5
-20 20 -36 30 -32 13 -28 -24 6 -18 16 -32 19 -68 15 -53 -6 -58 -2 -12 11 38
11 93 14 84 4z m1123 -3 c0 -5 -25 -10 -56 -10 -34 0 -53 4 -49 10 3 6 28 10
56 10 27 0 49 -4 49 -10z m-1590 -10 c0 -5 -7 -7 -15 -4 -8 4 -15 8 -15 10 0
2 7 4 15 4 8 0 15 -4 15 -10z m985 -20 c-60 -22 -84 -25 -68 -9 12 12 65 27
98 27 11 0 -2 -8 -30 -18z m1720 10 c-11 -5 -29 -8 -40 -8 -16 0 -15 2 5 8 34
11 60 11 35 0z m1542 4 c-3 -3 -12 -4 -19 -1 -8 3 -5 6 6 6 11 1 17 -2 13 -5z
m-4277 -14 c-8 -5 -40 -9 -70 -9 -40 0 -49 3 -35 9 29 12 124 12 105 0z m2500
-14 c0 -7 6 -20 13 -30 13 -18 16 -17 55 9 24 15 45 25 48 22 3 -3 -15 -17
-40 -32 -36 -21 -46 -33 -46 -53 -1 -26 -2 -26 -18 8 -14 29 -23 35 -55 38
-44 4 -47 13 -10 40 28 20 53 19 53 -2z m366 15 c-3 -5 -20 -11 -37 -15 -17
-3 -39 -16 -49 -28 -11 -13 -19 -18 -20 -11 0 19 54 58 84 61 15 1 25 -2 22
-7z m759 -1 c-16 -4 -39 -8 -50 -8 -16 0 -15 2 5 8 14 4 36 8 50 8 22 0 22 -1
-5 -8z m-3487 -21 c-10 -17 -10 -23 0 -26 20 -8 13 -22 -8 -16 -12 3 -29 -2
-40 -12 -11 -10 -20 -13 -20 -7 0 6 5 14 11 17 6 4 8 13 5 21 -3 8 1 14 10 14
8 0 22 7 30 15 22 21 26 19 12 -6z m712 0 c18 -12 -44 -1 -75 12 -14 7 -7 7
20 3 22 -3 47 -10 55 -15z m645 -8 l70 -18 -42 -21 c-23 -12 -48 -22 -55 -22
-7 0 2 8 20 16 39 20 41 34 5 34 -26 1 -99 28 -78 29 6 0 42 -8 80 -18z m-345
-1 c-20 -13 -43 -13 -35 0 3 6 16 10 28 10 18 0 19 -2 7 -10z m1135 0 c-28
-12 -67 -12 -60 0 3 6 23 10 43 9 30 0 33 -2 17 -9z m1730 -42 c14 -13 -3 -10
-34 6 -15 8 -34 23 -42 32 -11 14 -5 13 26 -6 22 -13 44 -27 50 -32z m-4145
32 c-8 -5 -28 -9 -45 -9 -26 0 -27 2 -10 9 11 5 31 9 45 9 20 1 22 -1 10 -9z
m1213 3 c-7 -2 -19 -2 -25 0 -7 3 -2 5 12 5 14 0 19 -2 13 -5z m2637 -23 c0
-12 12 -23 34 -31 36 -13 40 -35 4 -23 -12 3 -24 1 -28 -6 -6 -9 -10 -7 -14 8
-4 12 -16 24 -27 27 -10 4 -19 11 -19 16 0 6 9 7 21 4 18 -6 20 -4 14 15 -5
15 -4 20 4 16 6 -4 11 -16 11 -26z m238 -28 c17 -15 20 -22 10 -18 -19 6 -25
-9 -8 -19 6 -3 10 -11 10 -17 0 -6 -9 -3 -20 7 -11 10 -20 24 -20 32 0 7 -7
13 -15 13 -8 0 -15 5 -15 10 0 6 -4 10 -9 10 -6 0 -12 -17 -14 -37 -3 -32 -4
-30 -5 14 l-2 51 30 -11 c17 -6 43 -22 58 -35z m-4540 31 c-10 -2 -28 -2 -40
0 -13 2 -5 4 17 4 22 1 32 -1 23 -4z m247 -67 l18 -31 -31 30 c-16 17 -33 41
-37 55 l-6 25 19 -24 c11 -14 28 -38 37 -55z m1192 68 c-3 -3 -12 -4 -19 -1
-8 3 -5 6 6 6 11 1 17 -2 13 -5z m523 -48 c-1 -6 -10 0 -20 13 -11 13 -20 28
-20 35 1 6 10 0 20 -13 11 -13 20 -28 20 -35z m1720 44 c0 -12 -27 -12 -55 0
-16 7 -13 9 18 9 20 1 37 -3 37 -9z m-2540 -10 c0 -5 -9 -10 -19 -10 -11 0
-28 -3 -38 -6 -12 -5 -15 -4 -8 4 9 9 30 17 58 21 4 0 7 -3 7 -9z m1767 4 c-3
-3 -12 -4 -19 -1 -8 3 -5 6 6 6 11 1 17 -2 13 -5z m-719 -24 c-7 -11 -17 -20
-22 -20 -5 0 -1 9 9 20 10 11 20 20 22 20 2 0 -2 -9 -9 -20z m-1678 -39 c12
-23 16 -40 10 -36 -11 7 -40 66 -40 81 0 11 6 2 30 -45z m3129 -21 c0 -8 -7
-1 -14 15 -8 17 -14 37 -14 45 0 8 7 2 14 -15 8 -16 14 -37 14 -45z m204 51
c-3 -10 -21 -34 -40 -52 -36 -33 -32 -25 16 39 29 37 31 38 24 13z m988 -15
c7 4 10 1 7 -7 -10 -29 -34 -20 -35 13 -2 30 -1 31 7 10 6 -14 15 -20 21 -16z
m-4068 -8 c15 -6 26 -13 23 -15 -5 -5 -116 27 -116 34 0 6 57 -5 93 -19z
m-143 -24 c0 -13 -4 -24 -10 -24 -5 0 -10 14 -10 31 0 17 4 28 10 24 6 -3 10
-17 10 -31z m2306 -21 c-7 -7 -74 27 -88 45 -8 9 9 4 40 -13 28 -15 50 -30 48
-32z m584 17 c-7 -17 -15 -28 -18 -26 -2 3 1 19 8 36 7 17 15 28 18 26 2 -3
-1 -19 -8 -36z m232 6 c-20 -19 -39 -32 -42 -29 -6 6 60 63 72 63 4 0 -9 -15
-30 -34z m-1836 15 c-8 -12 -77 -44 -83 -38 -3 3 12 15 34 26 41 22 57 26 49
12z m244 5 c0 -2 -8 -10 -17 -17 -16 -13 -17 -12 -4 4 13 16 21 21 21 13z
m2115 -10 c19 -8 35 -17 35 -20 0 -5 -91 22 -98 29 -11 10 30 4 63 -9z m-3080
-6 c17 -7 16 -9 -10 -9 -16 0 -39 4 -50 9 -17 7 -16 9 10 9 17 0 39 -4 50 -9z
m-1206 -16 c10 -9 -76 -3 -89 7 -11 7 -1 8 35 3 28 -4 52 -8 54 -10z m3959 4
c-4 -12 -22 -12 -26 0 -1 5 4 9 13 9 9 0 14 -4 13 -9z"/>
<path d="M3835 4820 c-3 -5 -1 -10 4 -10 6 0 11 5 11 10 0 6 -2 10 -4 10 -3 0
-8 -4 -11 -10z"/>
<path d="M2833 2806 c-85 -40 -133 -135 -133 -266 0 -148 63 -250 178 -285 20
-6 22 -3 22 27 -1 26 -7 37 -33 53 -54 34 -72 84 -72 205 0 122 17 170 72 202
27 16 33 26 33 54 0 19 -3 34 -7 34 -5 0 -31 -11 -60 -24z"/>
<path d="M2940 2797 c0 -27 5 -34 33 -43 17 -6 39 -14 48 -18 11 -5 26 1 44
16 l27 24 -23 15 c-30 19 -86 39 -110 39 -15 0 -19 -8 -19 -33z"/>
<path d="M3345 2811 c-89 -40 -138 -136 -138 -271 0 -158 63 -255 186 -285 25
-7 27 -5 27 26 0 29 -6 37 -38 54 -125 67 -115 387 14 419 20 5 24 13 24 41 0
41 -14 44 -75 16z"/>
<path d="M3460 2796 c0 -27 5 -35 24 -40 59 -15 106 -111 106 -216 0 -105 -46
-199 -105 -214 -21 -5 -25 -12 -25 -42 0 -35 1 -35 33 -29 129 28 208 185 177
355 -19 107 -65 172 -142 204 -57 24 -68 21 -68 -18z"/>
<path d="M680 2535 l0 -285 45 0 45 0 0 285 0 285 -45 0 -45 0 0 -285z"/>
<path d="M810 2790 c0 -28 3 -30 35 -30 78 0 122 -52 113 -135 -8 -63 -40 -95
-102 -102 -43 -5 -46 -8 -46 -34 0 -26 4 -29 30 -29 28 0 33 -7 82 -105 l53
-105 42 0 c24 0 43 3 43 7 0 3 -28 53 -61 111 l-61 104 41 37 c47 41 61 74 61
137 0 98 -83 174 -190 174 -38 0 -40 -2 -40 -30z"/>
<path d="M1150 2535 l0 -285 45 0 45 0 0 285 0 285 -45 0 -45 0 0 -285z"/>
<path d="M1280 2790 l0 -30 115 0 115 0 0 30 0 30 -115 0 -115 0 0 -30z"/>
<path d="M1762 2793 c-13 -37 -149 -423 -173 -491 l-18 -53 46 3 45 3 73 208
c39 114 75 210 78 213 8 8 1 27 86 -221 l69 -200 45 -3 46 -3 -18 53 c-11 29
-53 150 -94 268 -41 118 -78 223 -82 233 -5 12 -19 17 -50 17 -38 0 -44 -3
-53 -27z"/>
<path d="M2140 2535 l0 -285 175 0 175 0 0 35 0 35 -130 0 -130 0 0 250 0 250
-45 0 -45 0 0 -285z"/>
<path d="M3770 2535 l0 -285 175 0 175 0 0 35 0 35 -135 0 -135 0 0 250 0 250
-40 0 -40 0 0 -285z"/>
<path d="M4180 2535 l0 -285 40 0 40 0 0 285 0 285 -40 0 -40 0 0 -285z"/>
<path d="M4300 2790 l0 -30 115 0 115 0 0 30 0 30 -115 0 -115 0 0 -30z"/>
<path d="M1280 2540 l0 -30 100 0 100 0 0 30 0 30 -100 0 -100 0 0 -30z"/>
<path d="M4300 2540 l0 -30 100 0 100 0 0 30 0 30 -100 0 -100 0 0 -30z"/>
<path d="M2940 2516 c0 -23 5 -25 48 -28 l47 -3 3 -68 c3 -80 -4 -93 -59 -102
-35 -6 -39 -10 -39 -37 0 -30 1 -30 41 -24 44 7 93 29 122 54 14 13 17 33 17
124 l0 108 -90 0 c-89 0 -90 0 -90 -24z"/>
<path d="M1756 2408 c-3 -13 -6 -26 -6 -30 0 -5 29 -8 65 -8 36 0 65 3 65 8 0
4 -3 17 -6 30 -6 19 -13 22 -59 22 -46 0 -53 -3 -59 -22z"/>
<path d="M1280 2285 l0 -35 115 0 115 0 0 35 0 35 -115 0 -115 0 0 -35z"/>
<path d="M4945 240 c-3 -5 1 -10 10 -10 9 0 13 5 10 10 -3 6 -8 10 -10 10 -2
0 -7 -4 -10 -10z"/>
<path d="M3280 160 c0 -5 5 -10 11 -10 5 0 7 5 4 10 -3 6 -8 10 -11 10 -2 0
-4 -4 -4 -10z"/>
<path d="M3000 15 c0 -10 10 -15 27 -15 26 0 26 1 7 15 -25 19 -34 19 -34 0z"/>
<path d="M0 10 c0 -5 5 -10 11 -10 5 0 7 5 4 10 -3 6 -8 10 -11 10 -2 0 -4 -4
-4 -10z"/>
</g>
</svg>
